<?xml version="1.0" encoding="UTF-8"?>
<svg width="248px" height="248px" viewBox="0 0 248 248" version="1.1" xmlns="http://www.w3.org/2000/svg" xmlns:xlink="http://www.w3.org/1999/xlink">
    <!-- Generator: Sketch 48.1 (47250) - http://www.bohemiancoding.com/sketch -->
    <title>Layer_8</title>
    <desc>Created with Sketch.</desc>
    <defs></defs>
    <g id="Page-1" stroke="none" stroke-width="1" fill="none" fill-rule="evenodd">
        <g id="Layer_8" fill-rule="nonzero">
            <g id="Group">
                <circle id="Oval" fill="#53567B" opacity="0.8" cx="123.089" cy="131.061" r="116.469"></circle>
                <g transform="translate(42.000000, 0.000000)">
                    <path d="M86.54,57.872 L39.114,57.872 C39.114,46.175 47.384,43.563 47.384,43.563 L47.425,43.542 C47.436,43.542 47.436,43.534 47.445,43.534 L48.393,43.165 L54.347,40.848 C54.39,40.991 54.438,41.128 54.511,41.258 L55.598,40.861 L55.609,40.848 L55.598,40.839 L56.854,38.257 L57.363,38.257 L57.363,36.437 C55.316,34.742 53.794,32.078 53.164,28.936 C53.153,28.904 53.153,28.866 53.146,28.836 C52.505,28.367 51.956,27.32 51.758,26.033 C51.478,24.155 52.055,22.488 53.052,22.311 C53.023,22.202 53.146,21.73 53.093,21.521 C52.941,20.813 52.847,20.782 52.674,20.385 C52.416,19.756 51.825,18.997 51.825,18.299 C51.765,17.601 52.395,16.971 52.726,16.411 C54.84,13.059 58.352,10.824 62.132,10.824 C65.205,10.824 69.432,12.012 69.176,16.341 C69.816,15.733 70.804,15.715 71.512,16.203 C72.497,17.059 72.577,17.64 72.769,18.548 C73.049,20.143 72.909,21.201 72.532,22.298 C72.548,22.298 72.578,22.311 72.601,22.311 C72.61,22.311 72.63,22.311 72.636,22.32 C73.616,22.527 74.174,24.177 73.896,26.033 C73.668,27.588 72.909,28.805 72.08,29.064 C72.043,29.083 71.999,29.095 71.952,29.095 C71.331,32.059 69.906,34.593 68.001,36.259 C67.991,36.266 67.973,36.279 67.96,36.286 L67.96,38.256 L68.341,38.256 L69.597,40.838 L68.78,41.436 L69.597,40.847 L71.084,41.378 C71.151,41.227 71.223,41.067 71.271,40.908 L78.268,43.512 L78.268,43.563 C78.268,43.563 86.54,46.175 86.54,57.872 Z" id="Shape" fill="#698FA5"></path>
                    <path d="M108.957,57.872 L61.533,57.872 C61.533,46.175 69.804,43.563 69.804,43.563 L69.841,43.542 C69.854,43.542 69.854,43.534 69.866,43.534 L70.813,43.165 L76.769,40.848 C76.806,40.991 76.856,41.128 76.926,41.258 L78.015,40.861 L78.028,40.848 L78.015,40.839 L79.271,38.257 L79.782,38.257 L79.782,36.437 C77.736,34.742 76.21,32.078 75.579,28.936 C75.571,28.904 75.571,28.866 75.561,28.836 C74.923,28.367 74.373,27.32 74.174,26.033 C73.892,24.155 74.475,22.488 75.469,22.311 C75.44,22.202 75.561,21.73 75.513,21.521 C75.36,20.813 75.263,20.782 75.094,20.385 C74.834,19.756 74.243,18.997 74.243,18.299 C74.185,17.601 74.812,16.971 75.141,16.411 C77.256,13.059 80.769,10.824 84.55,10.824 C87.624,10.824 91.854,12.012 91.594,16.341 C92.235,15.733 93.221,15.715 93.929,16.203 C94.915,17.059 94.996,17.64 95.187,18.548 C95.466,20.143 95.327,21.201 94.948,22.298 C94.969,22.298 94.997,22.311 95.017,22.311 C95.028,22.311 95.048,22.311 95.056,22.32 C96.037,22.527 96.593,24.177 96.31,26.033 C96.084,27.588 95.327,28.805 94.497,29.064 C94.458,29.083 94.418,29.095 94.367,29.095 C93.747,32.059 92.323,34.593 90.419,36.259 C90.407,36.266 90.388,36.279 90.378,36.286 L90.378,38.256 L90.755,38.256 L92.014,40.838 L91.2,41.436 L92.014,40.847 L93.498,41.378 C93.573,41.227 93.636,41.067 93.692,40.908 L100.682,43.512 L100.682,43.563 C100.685,43.563 108.957,46.175 108.957,57.872 Z" id="Shape" fill="#BCA088"></path>
                    <path d="M132.648,57.872 L85.264,57.872 C85.264,46.188 93.53,43.576 93.53,43.576 L93.572,43.554 C93.579,43.554 93.579,43.545 93.588,43.545 L94.535,43.175 L100.49,40.864 C100.53,41.001 100.579,41.143 100.646,41.272 L101.733,40.872 L101.746,40.864 L101.733,40.854 L102.989,38.272 L103.503,38.272 L103.503,36.457 C101.456,34.759 99.931,32.097 99.304,28.959 C99.294,28.928 99.294,28.889 99.282,28.86 C98.645,28.391 98.098,27.343 97.899,26.057 C97.618,24.184 98.195,22.518 99.193,22.339 C99.163,22.232 99.282,21.762 99.234,21.553 C99.082,20.843 98.986,20.815 98.816,20.413 C98.553,19.787 97.965,19.029 97.965,18.33 C97.908,17.632 98.537,17.005 98.866,16.446 C100.978,13.096 104.485,10.865 108.266,10.865 C111.337,10.865 115.562,12.052 115.303,16.378 C115.944,15.77 116.93,15.75 117.634,16.238 C118.622,17.095 118.702,17.675 118.891,18.581 C119.169,20.177 119.031,21.234 118.652,22.33 C118.674,22.33 118.703,22.339 118.725,22.339 C118.733,22.339 118.752,22.339 118.762,22.348 C119.739,22.56 120.298,24.205 120.016,26.057 C119.787,27.613 119.031,28.829 118.203,29.089 C118.163,29.108 118.124,29.119 118.072,29.119 C117.454,32.08 116.033,34.611 114.126,36.277 C114.117,36.284 114.096,36.295 114.086,36.303 L114.086,38.272 L114.464,38.272 L115.722,40.854 L114.907,41.451 L115.722,40.864 L117.205,41.391 C117.275,41.242 117.346,41.081 117.394,40.924 L124.383,43.522 L124.383,43.575 C124.385,43.576 132.648,46.188 132.648,57.872 Z" id="Shape" fill="#698FA5"></path>
                    <rect id="Rectangle-path" fill="#A7756C" x="4.338" y="61.943" width="162.416" height="4.078"></rect>
                    <rect id="Rectangle-path" fill="#A7756C" x="4.338" y="120.396" width="162.416" height="7.775"></rect>
                    <rect id="Rectangle-path" fill="#90655D" x="0.886" y="57.872" width="169.323" height="4.076"></rect>
                    <rect id="Rectangle-path" fill="#8C625A" x="9.52" y="66.021" width="152.052" height="54.375"></rect>
                    <rect id="Rectangle-path" fill="#C58A7F" x="17.575" y="73.776" width="39.876" height="39.874"></rect>
                    <polygon id="Shape" fill="#BEBEC4" opacity="0.36" points="57.451 113.65 17.575 113.65 17.575 73.776"></polygon>
                    <polygon id="Shape" fill="#BEBEC4" opacity="0.36" points="17.575 113.65 57.451 113.65 57.451 73.776"></polygon>
                    <rect id="Rectangle-path" fill="#C58A7F" x="65.911" y="73.776" width="39.874" height="39.874"></rect>
                    <polygon id="Shape" fill="#BEBEC4" opacity="0.36" points="105.785 113.65 65.911 113.65 65.911 73.776"></polygon>
                    <polygon id="Shape" fill="#BEBEC4" opacity="0.36" points="65.911 113.65 105.785 113.65 105.785 73.776"></polygon>
                    <rect id="Rectangle-path" fill="#C58A7F" x="114.243" y="73.776" width="39.877" height="39.874"></rect>
                    <polygon id="Shape" fill="#BEBEC4" opacity="0.36" points="154.12 113.65 114.243 113.65 114.243 73.776"></polygon>
                    <polygon id="Shape" fill="#BEBEC4" opacity="0.36" points="114.243 113.65 154.12 113.65 154.12 73.776"></polygon>
                    <g transform="translate(96.000000, 8.000000)">
                        <rect id="Rectangle-path" fill="#E9C5A7" x="20.456" y="24.851" width="11.609" height="6.362"></rect>
                        <path d="M16.856,18.359 C16.562,18.411 16.264,18.342 15.986,18.175 C15.212,17.712 14.539,16.504 14.309,14.992 C13.998,12.934 14.635,11.11 15.732,10.913 C15.834,10.894 15.936,10.889 16.032,10.907 C16.093,10.907 16.147,10.913 16.202,10.933 C16.441,10.987 16.679,11.115 16.892,11.312 C17.541,11.876 18.079,12.963 18.275,14.279 C18.589,16.34 17.95,18.16 16.856,18.359 Z" id="Shape" fill="#E9C5A7"></path>
                        <path d="M38.564,14.992 C38.309,16.699 37.482,18.032 36.575,18.313 C36.387,18.376 36.205,18.396 36.019,18.359 C34.925,18.16 34.287,16.339 34.6,14.279 C34.788,13.03 35.276,11.983 35.883,11.406 C36.106,11.191 36.332,11.036 36.574,10.958 C36.763,10.894 36.953,10.874 37.147,10.913 C37.157,10.913 37.174,10.918 37.182,10.926 C38.257,11.153 38.87,12.959 38.564,14.992 Z" id="Shape" fill="#E9C5A7"></path>
                        <path d="M36.823,14.634 C36.823,15.913 36.691,17.147 36.446,18.318 C35.763,21.574 34.201,24.359 32.106,26.197 C30.41,27.696 28.361,28.566 26.162,28.566 C24.061,28.566 22.103,27.77 20.456,26.397 C18.214,24.535 16.542,21.615 15.851,18.171 C15.629,17.04 15.505,15.861 15.505,14.634 C15.505,13.348 15.645,12.095 15.903,10.907 C15.915,10.794 15.947,10.676 15.976,10.561 C16.009,10.681 16.041,10.806 16.07,10.933 C16.312,10.982 16.547,11.117 16.76,11.312 C16.433,9.999 17.414,7.662 18.17,6.524 C19.225,4.921 20.978,4.614 22.735,4.227 C25.047,3.842 27.147,3.538 29.46,3.538 C31.072,3.538 31.708,3.765 33.035,4.687 C32.474,6.74 34.139,9.878 35.753,11.408 C35.974,11.186 36.202,11.033 36.445,10.958 C36.496,11.204 36.554,11.456 36.587,11.715 C36.741,12.657 36.823,13.631 36.823,14.634 Z" id="Shape" fill="#F3D2B2"></path>
                        <polygon id="Shape" fill="#FFFFFF" points="26.187 31.213 24.976 32.81 23.451 34.815 20.709 32.81 20.462 32.632 18.533 31.228 18.517 31.213 19.896 28.383 20.462 28.383"></polygon>
                        <polygon id="Shape" fill="#FFFFFF" points="33.85 31.213 32.062 32.519 31.657 32.81 28.917 34.815 27.402 32.81 26.187 31.213 31.909 28.383 32.472 28.383"></polygon>
                        <g opacity="0.14" transform="translate(20.000000, 32.000000)" fill="#4D4D4D" id="Shape">
                            <polygon points="0.505 0.665 0.462 0.632 0.456 0.629 0.462 0.629"></polygon>
                        </g>
                        <g opacity="0.14" transform="translate(20.000000, 32.000000)" fill="#4D4D4D" id="Shape">
                            <polygon points="0.505 0.665 0.462 0.632 0.456 0.629 0.462 0.629"></polygon>
                        </g>
                        <path d="M36.11,32.022 C34.976,35.242 31.047,37.611 26.372,37.611 C21.655,37.611 17.701,35.203 16.599,31.944 L18.517,31.231 L18.531,31.218 L20.449,32.629 L20.463,32.629 L20.702,32.81 L20.785,32.869 L20.931,32.977 L20.942,32.977 L21.479,33.374 L23.452,34.812 L23.464,34.812 L24.068,34.006 L24.97,32.811 L25.08,32.68 L25.08,32.667 L25.411,32.238 L25.749,31.797 L26.181,31.22 L26.623,31.797 L27.05,32.368 L27.397,32.811 L27.397,32.822 L27.638,33.135 L28.842,34.718 L28.91,34.812 L28.96,34.774 L31.392,33.016 L31.659,32.822 L32.066,32.507 L33.851,31.219 L36.11,32.022 Z" id="Shape" fill="#E5E5E5"></path>
                        <path d="M52.414,49.875 L0.46,49.875 C0.46,37.058 9.519,34.193 9.519,34.193 L9.526,34.193 L9.566,34.18 C9.576,34.18 9.576,34.165 9.592,34.159 L10.621,33.764 L17.145,31.218 C18.196,34.479 21.955,36.879 26.439,36.879 C30.878,36.879 34.611,34.513 35.689,31.293 L43.351,34.147 L43.351,34.194 C43.352,34.193 52.414,37.058 52.414,49.875 Z" id="Shape" fill="#F9A61F"></path>
                        <polygon id="Shape" fill="#C7C5CE" points="8.323 49.875 8.323 45.57 10.027 49.875"></polygon>
                        <polygon id="Shape" fill="#C7C5CE" points="44.614 49.875 44.614 45.57 42.909 49.875"></polygon>
                        <path d="M36.722,14.118 C35.622,9.697 29.887,5.508 26.161,7.838 C22.448,5.495 16.901,9.697 15.795,14.118 C15.339,11.166 15.525,10.072 15.73,8.749 C16.067,6.804 16.751,5.015 17.832,3.457 C18.839,1.975 19.772,1.214 21.353,0.505 C22.9,-0.208 25.064,-0.18 26.268,0.69 C27.481,-0.18 29.63,-0.195 31.178,0.505 C32.751,1.213 33.681,1.974 34.699,3.457 C35.78,5.015 36.45,6.803 36.789,8.749 C36.992,10.072 37.188,11.167 36.722,14.118 Z" id="Shape" fill="#A0684B"></path>
                        <path d="M26.162,7.839 C22.432,8.412 17.723,10.606 15.795,14.122 C16.901,9.697 22.453,5.5 26.162,7.839 Z" id="Shape" fill="#BEBEC4" opacity="0.62"></path>
                    </g>
                    <g transform="translate(22.000000, 11.000000)" id="Shape">
                        <path d="M24.706,34.517 C24.706,40.261 13.632,40.662 12.767,30.047 L15.351,29.092 C15.399,29.238 15.451,29.385 15.517,29.528 C16.764,32.424 20.404,34.517 24.706,34.517 Z" fill="#F2F2F2"></path>
                        <path d="M36.638,30.088 C35.751,40.662 24.706,40.252 24.706,34.517 C28.895,34.517 32.464,32.528 33.79,29.739 C33.875,29.554 33.962,29.359 34.028,29.165 L36.638,30.088 Z" fill="#F2F2F2"></path>
                        <path d="M48.705,46.951 L0.704,46.951 C0.704,43.504 -0.15,34.777 7.659,31.941 L7.674,31.941 L7.71,31.929 C7.722,31.929 7.722,31.914 7.737,31.91 L8.773,31.533 L12.766,30.05 C13.631,40.662 24.705,40.261 24.705,34.517 C24.705,40.252 35.752,40.662 36.637,30.088 L41.742,31.898 L41.742,31.941 C49.559,34.777 48.705,43.504 48.705,46.951 Z" fill="#6CC4A9"></path>
                        <path d="M33.79,29.738 C32.464,32.527 28.895,34.516 24.706,34.516 C20.404,34.516 16.764,32.424 15.517,29.527 L19.044,28.282 L19.044,23.434 L30.153,23.434 L30.153,28.282 L33.79,29.738 Z" fill="#E9C5A7"></path>
                        <path d="M34.351,14.855 C34.351,18.976 32.609,22.601 29.977,24.719 C28.437,25.962 26.585,26.683 24.599,26.683 C22.655,26.683 20.86,26 19.341,24.82 C16.801,22.857 15.063,19.497 14.854,15.637 C14.843,15.373 14.834,15.118 14.834,14.855 C14.834,14.583 14.843,14.314 14.857,14.052 C17.746,14.037 21.764,12.452 23.485,11.699 C25.873,10.744 27.984,9.064 29.31,6.841 C30.275,8.698 32.041,10.929 33.968,11.569 C33.993,11.683 34.016,11.793 34.039,11.903 C34.062,12.014 34.083,12.122 34.106,12.233 L34.106,12.234 C34.267,13.077 34.351,13.953 34.351,14.855 Z" fill="#F3D2B2"></path>
                        <path d="M19.341,24.82 C16.801,22.857 15.063,19.497 14.854,15.637 C14.839,15.373 14.834,15.118 14.834,14.855 C14.834,14.583 14.839,14.314 14.857,14.052 C17.746,14.038 21.764,12.45 23.485,11.699 C25.87,10.746 27.984,9.064 29.31,6.84 C30.275,8.698 32.039,10.929 33.968,11.572 C34.016,11.792 34.064,12.013 34.107,12.233 C34.266,13.076 34.35,13.957 34.35,14.855 C34.35,18.976 32.608,22.601 29.976,24.719 C33.784,26.716 36.352,22.212 37.245,19.83 C38.156,17.412 38.099,15.131 37.245,11.591 C36.097,8.261 35.276,7.138 33.621,4.959 C31.071,1.611 27.925,0.431 24.188,0.431 C18.994,0.431 17.687,2.692 15.407,4.988 C13.486,7.548 11.815,11.194 11.411,14.216 C10.612,19.913 13.896,28.119 19.341,24.82 Z" fill="#572F2F"></path>
                        <g opacity="0.13" transform="translate(14.000000, 6.000000)" fill="#4D4D4D">
                            <path d="M0.834,8.855 C0.834,9.118 0.843,9.373 0.854,9.637 C3.206,9.421 5.987,8.463 8.522,7.06 C11.413,5.469 13.98,3.306 15.205,1.041 C15.242,0.975 15.278,0.91 15.313,0.841 C13.985,3.067 11.874,4.746 9.487,5.699 C7.765,6.45 3.75,8.038 0.858,8.052 C0.843,8.315 0.834,8.583 0.834,8.855 Z"></path>
                        </g>
                        <g opacity="0.48" transform="translate(29.000000, 6.000000)" fill="#8CACB2">
                            <path d="M0.313,0.841 C0.693,2.516 2.224,5.213 5.108,6.234 C5.065,6.014 5.017,5.793 4.969,5.573 C3.042,4.93 1.275,2.699 0.313,0.841 Z"></path>
                        </g>
                    </g>
                    <g transform="translate(56.000000, 0.000000)">
                        <rect id="Rectangle-path" fill="#E9C5A7" x="22.634" y="30.21" width="12.833" height="7.036"></rect>
                        <path d="M18.652,23.035 C18.331,23.094 18,23.02 17.69,22.831 C16.836,22.324 16.09,20.982 15.839,19.312 C15.496,17.038 16.193,15.02 17.413,14.804 C17.523,14.783 17.637,14.779 17.741,14.797 C17.808,14.797 17.869,14.804 17.932,14.826 C18.197,14.885 18.455,15.027 18.693,15.244 C19.412,15.866 20.002,17.071 20.224,18.525 C20.571,20.799 19.862,22.816 18.652,23.035 Z" id="Shape" fill="#E9C5A7"></path>
                        <path d="M42.653,19.312 C42.37,21.201 41.45,22.676 40.451,22.984 C40.248,23.056 40.042,23.074 39.837,23.035 C38.627,22.816 37.922,20.799 38.27,18.525 C38.483,17.144 39.021,15.988 39.691,15.346 C39.932,15.11 40.187,14.939 40.452,14.852 C40.664,14.783 40.875,14.762 41.086,14.803 C41.098,14.803 41.118,14.809 41.129,14.818 C42.312,15.069 42.989,17.065 42.653,19.312 Z" id="Shape" fill="#E9C5A7"></path>
                        <path d="M40.73,18.915 C40.73,20.328 40.584,21.696 40.308,22.989 C39.558,26.59 37.825,29.671 35.51,31.701 C33.635,33.356 31.373,34.319 28.946,34.319 C26.619,34.319 24.456,33.438 22.633,31.918 C20.153,29.863 18.307,26.633 17.542,22.825 C17.297,21.577 17.157,20.271 17.157,18.916 C17.157,17.495 17.311,16.111 17.596,14.798 C17.612,14.672 17.649,14.54 17.682,14.415 C17.715,14.55 17.752,14.687 17.787,14.827 C18.051,14.883 18.309,15.029 18.548,15.245 C18.185,13.795 19.265,11.211 20.106,9.952 C21.266,8.181 23.212,7.837 25.152,7.414 C27.705,6.986 30.031,6.65 32.589,6.65 C34.369,6.65 35.076,6.901 36.541,7.923 C35.92,10.192 37.761,13.66 39.544,15.35 C39.786,15.106 40.039,14.938 40.308,14.855 C40.363,15.126 40.427,15.407 40.463,15.692 C40.64,16.733 40.73,17.807 40.73,18.915 Z" id="Shape" fill="#F3D2B2"></path>
                        <path d="M40.981,14.818 C40.968,14.809 40.951,14.803 40.94,14.803 C40.73,14.762 40.521,14.782 40.307,14.852 C40.039,14.939 39.786,15.11 39.544,15.346 C37.764,13.658 35.913,10.19 36.545,7.921 C35.074,6.904 34.372,6.646 32.594,6.646 C30.031,6.646 27.705,6.99 25.149,7.413 C23.208,7.839 21.267,8.18 20.107,9.951 C19.263,11.21 18.186,13.795 18.551,15.244 C18.311,15.026 17.676,14.866 17.413,14.804 C17.374,14.669 17.514,14.107 17.458,13.857 C17.278,12.993 17.155,12.958 16.952,12.476 C16.641,11.718 15.919,10.798 15.919,9.952 C15.849,9.107 16.612,8.341 17.006,7.667 C19.569,3.603 23.827,0.898 28.399,0.898 C32.121,0.898 37.244,2.338 36.935,7.586 C37.706,6.85 38.911,6.819 39.761,7.414 C40.959,8.456 41.056,9.146 41.287,10.249 C41.617,12.193 41.456,13.472 40.981,14.818 Z" id="Shape" fill="#C39D6C"></path>
                        <polygon id="Shape" fill="#FFFFFF" points="28.966 37.246 27.629 39.01 25.941 41.224 22.913 39.01 22.637 38.815 20.507 37.258 20.488 37.246 22.012 34.114 22.637 34.114"></polygon>
                        <polygon id="Shape" fill="#FFFFFF" points="37.439 37.246 35.465 38.687 35.016 39.01 31.988 41.224 30.311 39.01 28.966 37.246 35.294 34.114 35.917 34.114"></polygon>
                        <g opacity="0.14" transform="translate(22.000000, 38.000000)" fill="#4D4D4D" id="Shape">
                            <polygon points="0.69 0.85 0.637 0.815 0.634 0.808 0.637 0.808"></polygon>
                        </g>
                        <g opacity="0.14" transform="translate(22.000000, 38.000000)" fill="#4D4D4D" id="Shape">
                            <polygon points="0.69 0.85 0.637 0.815 0.634 0.808 0.637 0.808"></polygon>
                        </g>
                        <path d="M39.941,38.137 C38.683,41.697 34.339,44.318 29.175,44.318 C23.956,44.318 19.59,41.657 18.366,38.054 L20.49,37.266 L20.504,37.251 L22.625,38.809 L22.636,38.809 L22.904,39.011 L22.997,39.073 L23.156,39.193 L23.169,39.193 L23.764,39.633 L25.942,41.221 L25.954,41.221 L26.627,40.328 L27.627,39.01 L27.742,38.864 L27.742,38.849 L28.117,38.376 L28.483,37.885 L28.959,37.249 L29.445,37.885 L29.921,38.521 L30.305,39.009 L30.305,39.023 L30.574,39.367 L31.908,41.117 L31.98,41.22 L32.037,41.18 L34.727,39.235 L35.018,39.023 L35.466,38.673 L37.441,37.249 L39.941,38.137 Z" id="Shape" fill="#E5E5E5"></path>
                        <path d="M34.726,39.31 C34.726,41.119 34.015,42.228 33.149,41.774 C32.279,41.321 31.346,40.834 31.068,40.687 C30.941,40.617 30.761,40.528 30.556,40.417 C30.515,40.6 30.371,40.735 30.189,40.735 L28.124,40.735 C27.945,40.735 27.802,40.61 27.758,40.432 C27.568,40.539 27.397,40.63 27.276,40.694 C27.022,40.833 26.118,41.32 25.287,41.774 C24.45,42.228 23.766,41.118 23.766,39.31 C23.766,37.497 24.451,36.386 25.287,36.84 C26.118,37.293 27.022,37.783 27.276,37.92 C27.397,37.984 27.568,38.074 27.758,38.18 C27.802,38.01 27.946,37.877 28.124,37.877 L30.189,37.877 C30.372,37.877 30.515,38.019 30.556,38.201 C30.761,38.097 30.941,38.006 31.068,37.934 C31.346,37.783 32.279,37.292 33.149,36.839 C34.015,36.386 34.726,37.496 34.726,39.31 Z" id="Shape" fill="#7C411E"></path>
                        <path d="M57.961,57.875 L0.527,57.875 C0.527,43.705 10.544,40.539 10.544,40.539 L10.55,40.539 L10.594,40.522 C10.607,40.522 10.607,40.507 10.62,40.501 L11.759,40.065 L18.974,37.252 C20.137,40.854 24.288,43.51 29.248,43.51 C34.155,43.51 38.283,40.892 39.471,37.33 L47.948,40.484 L47.948,40.538 C47.947,40.539 57.961,43.705 57.961,57.875 Z" id="Shape" fill="#6BC6C9"></path>
                        <polygon id="Shape" fill="#C7C5CE" points="9.217 57.875 9.217 53.118 11.105 57.875"></polygon>
                        <polygon id="Shape" fill="#C7C5CE" points="49.339 57.875 49.339 53.118 47.455 57.875"></polygon>
                    </g>
                    <path d="M56.527,57.497 C56.636,49.32 60.104,44.873 62.933,42.613 L58.631,41.088 L57.8,40.786 C55.889,42.793 54.053,45.548 52.907,49.284 C52.146,51.711 51.685,54.552 51.685,57.876 L51.685,57.946 L56.47,57.946 C56.49,57.798 56.505,57.647 56.527,57.497 Z" id="Shape" fill="#C7C5CE" opacity="0.87"></path>
                    <path d="M118.796,57.875 L113.961,57.875 C113.961,48.329 109.42,43.785 106.459,41.827 L106.615,41.766 L111.678,39.784 C115.159,42.988 118.796,48.558 118.796,57.875 Z" id="Shape" fill="#C7C5CE" opacity="0.87"></path>
                    <rect id="Rectangle-path" fill="#C7C5CE" opacity="0.53" x="9.52" y="66.021" width="152.052" height="5.361"></rect>
                </g>
                <g transform="translate(0.000000, 41.000000)">
                    <path d="M112.114,60.066 C112.114,60.03 112.107,59.995 112.091,59.967 L106.61,49.515 C106.672,49.475 106.738,49.439 106.801,49.402 C106.977,49.505 107.183,49.561 107.402,49.561 C108.065,49.561 108.597,49.029 108.597,48.366 C108.597,47.701 108.065,47.168 107.402,47.168 C106.744,47.168 106.206,47.701 106.206,48.366 C106.206,48.428 106.208,48.484 106.221,48.543 C105.106,49.127 104.025,49.469 102.685,49.519 C101.104,49.578 99.816,48.789 98.498,47.978 C97.287,47.234 95.842,46.528 94.391,46.105 C94.159,45.576 93.751,45.147 93.248,44.875 L93.248,33.042 L90.83,33.042 L90.83,44.875 C90.319,45.147 89.913,45.58 89.681,46.109 C88.239,46.528 86.79,47.234 85.579,47.978 C84.262,48.789 82.974,49.577 81.391,49.519 C80.093,49.473 79.047,49.154 77.966,48.6 C77.982,48.522 77.991,48.446 77.991,48.367 C77.991,47.702 77.452,47.169 76.792,47.169 C76.13,47.169 75.596,47.702 75.596,48.367 C75.596,49.03 76.13,49.562 76.792,49.562 C76.988,49.562 77.171,49.516 77.331,49.434 C77.409,49.483 77.484,49.525 77.56,49.568 L72.105,59.968 C72.091,59.996 72.083,60.031 72.083,60.067 L71.47,60.067 L71.47,61.076 L72.284,61.076 C73.168,63.371 75.391,64.991 77.991,64.991 C80.595,64.991 82.814,63.372 83.694,61.076 L84.51,61.076 L84.51,60.067 L83.902,60.067 C83.902,60.031 83.886,59.996 83.872,59.968 L78.743,50.182 C79.651,50.606 80.561,50.903 81.476,50.994 C82.557,51.103 84.193,50.845 85.578,50.083 C86.82,49.403 88.259,48.67 89.697,48.231 C90.103,49.113 91.003,49.73 92.035,49.73 C93.075,49.73 93.972,49.113 94.375,48.231 C95.813,48.669 97.26,49.402 98.497,50.083 C99.881,50.845 101.518,51.104 102.6,50.994 C103.567,50.897 104.531,50.568 105.491,50.107 L100.32,59.968 C100.307,59.996 100.297,60.031 100.297,60.067 L99.691,60.067 L99.691,61.076 L100.504,61.076 C101.386,63.371 103.608,64.991 106.207,64.991 C108.811,64.991 111.033,63.372 111.908,61.076 L112.724,61.076 L112.724,60.067 L112.114,60.067 L112.114,60.066 Z M77.785,60.066 L72.514,60.066 L77.785,50.021 L77.785,60.066 Z M83.466,60.066 L78.195,60.066 L78.195,50.021 L83.466,60.066 Z M105.999,60.066 L100.728,60.066 L105.999,50.021 L105.999,60.066 Z M106.409,60.066 L106.409,50.021 L111.682,60.066 L106.409,60.066 Z" id="Shape" fill="#E5E5E5"></path>
                    <path d="M77.001,42.438 C76.086,44.533 73.649,45.486 71.556,44.573 L53.378,36.646 C51.286,35.734 50.326,33.296 51.24,31.206 C52.152,29.111 54.593,28.155 56.682,29.068 L74.864,36.996 C76.956,37.909 77.912,40.344 77.001,42.438 Z" id="Shape" fill="#FFFFFF"></path>
                    <path d="M96.89,37.688 C97.183,39.954 95.588,42.027 93.325,42.322 L73.659,44.884 C71.396,45.181 69.32,43.584 69.023,41.318 C68.729,39.057 70.327,36.982 72.589,36.686 L92.257,34.124 C94.521,33.829 96.592,35.425 96.89,37.688 Z" id="Shape" fill="#FFFFFF"></path>
                    <path d="M31.545,29.316 C33.503,30.492 34.13,33.032 32.954,34.987 L22.727,51.981 C21.548,53.937 19.012,54.567 17.053,53.392 C15.097,52.215 14.465,49.676 15.645,47.719 L25.87,30.726 C27.048,28.769 29.586,28.136 31.545,29.316 Z" id="Shape" fill="#FFFFFF"></path>
                    <rect id="Rectangle-path" fill="#F2F2F2" x="32.256" y="59.495" width="21.598" height="3.659"></rect>
                    <polygon id="Shape" fill="#E5E5E5" points="32.256 62.925 27.423 72.59 25.646 93.894 32.256 135.113 29.79 145.175 34.325 147.347 40.833 144.78 47.921 147.347 53.854 144.978 52.476 130.778 59.177 91.327 57.403 71.011 53.854 62.925"></polygon>
                    <g transform="translate(0.000000, 58.000000)">
                        <polygon id="Shape" fill="#CCCCCC" points="34.931 46.63 37.979 54.19 32.091 48.644 8.099 14.836 11.898 12.216"></polygon>
                        <polygon id="Shape" fill="#F2F2F2" points="11.679 13.354 34.208 47.015 35.832 51.051 35.789 51.009 10.458 14.195"></polygon>
                        <polygon id="Shape" fill="#B8C4C6" points="15.883 9.683 4.472 17.534 3.435 16.022 14.845 8.17"></polygon>
                        <rect id="Rectangle-path" fill="#829094" transform="translate(5.280880, 6.793436) rotate(-34.529180) translate(-5.280880, -6.793436) " x="3.51396108" y="0.258734595" width="3.53383863" height="13.0694032"></rect>
                    </g>
                    <path d="M21.394,47.392 C23.073,48.939 23.183,51.553 21.634,53.233 L8.193,67.818 C6.647,69.498 4.031,69.603 2.351,68.055 C0.671,66.508 0.568,63.894 2.113,62.213 L15.551,47.629 C17.1,45.95 19.716,45.844 21.394,47.392 Z" id="Shape" fill="#FFFFFF"></path>
                    <path d="M58.29,42.019 L56.811,53.16 L54.988,58.977 L53.853,59.769 L32.255,59.769 L29.395,57.895 L29.395,53.752 L26.745,44.445 L24.851,29.715 C25.71,28.798 26.615,27.922 27.663,27.212 C27.935,27.467 28.214,27.715 28.491,27.965 C32.916,31.891 38.585,34.951 44.337,33.336 C47.241,32.549 50.202,31.017 52.327,28.85 C52.718,28.455 53.167,28.004 53.588,27.519 C53.971,27.094 54.326,26.631 54.6,26.162 C54.876,26.32 55.194,26.43 55.445,26.549 C56.369,27.01 57.285,27.466 58.21,27.922 L56.813,38.171 L58.29,42.019 Z" id="Shape" fill="#E5E5E5"></path>
                    <polygon id="Shape" fill="#829094" opacity="0.84" points="52.483 130.772 53.854 144.982 48.237 147.22 46.536 125.452 53.374 91.013 53.374 86.57 49.623 93.902 42.416 115.486 46.198 91.198 53.374 77.482 53.374 73.433 48.772 65 39.065 62.931 53.854 62.931 57.406 71.012 59.177 91.326"></polygon>
                    <g opacity="0.64" transform="translate(44.000000, 27.000000)" fill="#829094" id="Shape">
                        <path d="M14.293,15.019 L12.806,26.159 L10.979,31.977 L9.847,32.769 L5.913,32.769 L2.913,30.931 L7.884,29.557 L8.036,29.514 L7.894,29.471 L0.279,26.768 L8.885,24.603 L10.868,24.105 L11.844,16.407 L10.939,14.382 L9.805,11.822 L13.6,0.623 C13.628,0.639 13.671,0.653 13.7,0.666 L14.209,0.922 L12.806,11.169 L14.293,15.019 Z"></path>
                    </g>
                    <path d="M53.588,27.52 C53.167,28.004 52.718,28.456 52.327,28.851 C50.202,31.018 47.241,32.55 44.337,33.337 C38.585,34.952 32.916,31.892 28.491,27.966 C29.082,27.591 30.14,27.176 31.887,27.176 C35.798,27.176 36.959,23.797 37.284,21.253 C37.318,20.969 37.343,20.69 37.362,20.439 C37.365,20.29 37.375,20.147 37.376,20.011 C38.569,20.999 39.993,21.573 41.526,21.573 C43.061,21.573 44.48,20.999 45.665,20.019 C45.757,22.516 46.556,27.177 51.16,27.177 C52.196,27.176 52.989,27.323 53.588,27.52 Z" id="Shape" fill="#FFFFFF"></path>
                    <path d="M49.498,13.039 C49.498,13.979 49.392,14.894 49.195,15.753 C49.177,15.836 49.158,15.918 49.141,15.993 C49.102,16.149 49.057,16.309 49.012,16.46 C48.926,16.762 48.824,17.061 48.71,17.35 C48.548,17.784 48.35,18.203 48.135,18.6 C48.067,18.731 47.99,18.858 47.913,18.99 C47.761,19.243 47.6,19.49 47.427,19.722 C47.341,19.843 47.253,19.957 47.163,20.072 C47.075,20.185 46.978,20.29 46.886,20.397 C46.791,20.507 46.698,20.614 46.596,20.714 C46.502,20.816 46.404,20.908 46.291,21.005 C46.189,21.107 46.088,21.198 45.984,21.281 C45.968,21.294 45.953,21.307 45.935,21.321 C44.676,22.368 43.162,22.98 41.525,22.98 C39.89,22.98 38.373,22.368 37.101,21.313 C36.519,20.828 35.989,20.254 35.527,19.597 C35.451,19.491 35.38,19.378 35.308,19.27 C35.003,18.801 34.74,18.302 34.504,17.779 C34.402,17.532 34.304,17.279 34.217,17.028 C34.171,16.895 34.127,16.754 34.081,16.618 C34.04,16.477 33.999,16.341 33.962,16.2 C33.923,16.061 33.887,15.924 33.855,15.778 L33.855,15.771 C33.653,14.907 33.545,13.984 33.545,13.04 C33.545,7.641 37.001,3.243 41.298,3.096 C41.374,3.09 41.449,3.09 41.525,3.09 C41.601,3.09 41.678,3.09 41.752,3.096 C46.048,3.242 49.498,7.64 49.498,13.039 Z" id="Shape" fill="#E5E5E5"></path>
                    <rect id="Rectangle-path" fill="#BCBDC1" x="33.042" y="9.765" width="17.16" height="4.832"></rect>
                    <path d="M49.195,15.771 L49.195,15.778 C48.671,18.071 47.504,20.021 45.948,21.314 C45.964,21.713 45.995,22.162 46.052,22.642 L47.264,22.642 L51.046,20.962 L52.996,17.698 L52.314,7.39 L46.734,0.917 L43.998,0.493 L41.522,1.603 L41.526,3.088 L41.522,5.387 L45.936,9.962 L48.575,10.908 L49.195,15.771 Z" id="Shape" fill="#FFFFFF"></path>
                    <path d="M33.856,15.771 L33.856,15.778 C33.888,15.924 33.924,16.062 33.963,16.2 C34,16.341 34.041,16.477 34.082,16.618 C34.128,16.754 34.172,16.895 34.218,17.028 C34.305,17.279 34.404,17.532 34.505,17.779 C34.74,18.301 35.004,18.801 35.309,19.27 C35.38,19.377 35.452,19.491 35.528,19.597 C35.99,20.254 36.52,20.828 37.102,21.313 C37.098,21.458 37.087,21.609 37.08,21.768 C37.065,22.041 37.038,22.335 37.003,22.641 L35.789,22.641 L32.007,20.961 L30.055,17.697 L30.74,7.389 L36.319,0.916 L39.054,0.492 L41.523,1.602 L41.527,3.087 L41.527,5.386 L37.117,9.961 L34.475,10.907 L33.856,15.771 Z" id="Shape" fill="#CCCCCC"></path>
                    <path d="M53.588,27.52 C53.234,27.933 52.879,28.299 52.554,28.625 C49.779,29.431 46.366,29.559 44.697,29.559 C41.246,29.472 37.296,28.681 34.365,26.6 C36.276,25.551 36.998,23.289 37.253,21.431 C38.485,22.411 39.958,22.991 41.527,22.991 C43.087,22.991 44.556,22.412 45.787,21.431 C46.128,23.953 47.333,27.179 51.155,27.179 C52.197,27.178 52.994,27.321 53.588,27.52 Z" id="Shape" fill="#C5CDD0" opacity="0.93"></path>
                    <rect id="Rectangle-path" fill="#F2F2F2" x="18.497" y="143.697" width="46.453" height="10.208"></rect>
                    <rect id="Rectangle-path" fill="#C4C9C9" x="15.563" y="153.905" width="53.701" height="11.799"></rect>
                </g>
                <g transform="translate(84.000000, 175.000000)">
                    <rect id="Rectangle-path" fill="#01999E" x="0.435" y="0.494" width="83.776" height="62.616"></rect>
                    <rect id="Rectangle-path" fill="#01999E" x="0.435" y="63.11" width="83.776" height="4.425"></rect>
                    <rect id="Rectangle-path" fill="#B3A193" opacity="0.74" x="0.435" y="60.437" width="83.776" height="2.674"></rect>
                    <g transform="translate(60.000000, 17.000000)" fill="#F2F2F2" id="Shape">
                        <path d="M12.188,29.295 L0.623,29.295 L0.623,26.684 C0.623,25.996 0.805,25.376 1.168,24.822 C1.479,24.349 1.952,24.013 2.599,23.809 C2.942,23.698 3.35,23.642 3.824,23.642 C4.599,23.642 5.222,23.847 5.686,24.26 C5.884,24.433 6.036,24.635 6.138,24.87 C6.287,24.482 6.58,24.153 7.014,23.883 C7.31,23.704 7.691,23.571 8.159,23.487 C8.401,23.445 8.665,23.422 8.964,23.422 C9.693,23.422 10.315,23.562 10.823,23.837 C11.225,24.051 11.544,24.357 11.783,24.749 C12.053,25.193 12.189,25.633 12.189,26.069 L12.189,29.295 L12.188,29.295 Z M5.347,27.414 L5.347,26.684 C5.347,26.144 5.081,25.782 4.55,25.596 C4.357,25.53 4.112,25.496 3.822,25.496 C3.344,25.496 2.98,25.613 2.736,25.846 C2.508,26.06 2.392,26.341 2.392,26.684 L2.392,27.414 L5.347,27.414 Z M10.461,27.414 L10.461,26.684 C10.461,26.094 10.158,25.687 9.55,25.458 C9.341,25.38 9.101,25.339 8.831,25.339 C8.185,25.339 7.715,25.462 7.418,25.706 C7.148,25.928 7.013,26.256 7.013,26.683 L7.013,27.413 L10.461,27.413 L10.461,27.414 Z"></path>
                        <polygon points="12.188 20.165 12.188 21.909 0.633 21.909 0.633 20.165"></polygon>
                        <path d="M12.188,18.606 L0.623,18.606 L0.623,15.997 C0.623,15.307 0.805,14.687 1.168,14.133 C1.479,13.661 1.952,13.32 2.599,13.119 C2.942,13.007 3.35,12.954 3.824,12.954 C4.599,12.954 5.222,13.157 5.686,13.569 C5.884,13.743 6.036,13.944 6.138,14.179 C6.287,13.792 6.58,13.463 7.014,13.191 C7.31,13.013 7.691,12.88 8.159,12.796 C8.401,12.75 8.665,12.73 8.964,12.73 C9.693,12.73 10.315,12.87 10.823,13.145 C11.225,13.361 11.544,13.666 11.783,14.058 C12.053,14.501 12.189,14.942 12.189,15.376 L12.189,18.606 L12.188,18.606 Z M5.347,16.724 L5.347,15.997 C5.347,15.455 5.081,15.092 4.55,14.908 C4.357,14.84 4.112,14.806 3.822,14.806 C3.344,14.806 2.98,14.924 2.736,15.159 C2.508,15.373 2.392,15.653 2.392,15.998 L2.392,16.725 L5.347,16.725 L5.347,16.724 Z M10.461,16.724 L10.461,15.997 C10.461,15.406 10.158,14.997 9.55,14.769 C9.341,14.689 9.101,14.649 8.831,14.649 C8.185,14.649 7.715,14.772 7.418,15.018 C7.148,15.24 7.013,15.565 7.013,15.997 L7.013,16.724 L10.461,16.724 Z"></path>
                        <polygon points="12.188 6.47 12.188 11.22 0.633 11.22 0.633 9.476 10.455 9.476 10.455 6.469 12.188 6.469"></polygon>
                        <polygon points="12.188 5.273 0.623 5.273 0.623 0.311 2.377 0.311 2.377 3.529 5.529 3.529 5.529 1.177 7.284 1.177 7.284 3.529 10.435 3.529 10.435 0.311 12.188 0.311"></polygon>
                    </g>
                    <polygon id="Shape" fill="#F2F2F2" points="20.439 20 25.049 20 25.049 29.383 53.087 29.383 53.087 33.983 25.049 33.983 25.049 43.36 20.439 43.36 20.439 33.983 10.075 33.983 10.075 29.383 20.439 29.383"></polygon>
                    <polygon id="Shape" fill="#F2F2F2" opacity="0.07" points="0.435 0.494 64.795 60.612 0.435 60.612"></polygon>
                    <g transform="translate(9.000000, 4.000000)">
                        <polygon id="Shape" fill="#E1B398" points="52.227 13.7 52.227 13.7 52.227 13.7 52.227 13.7 53.644 13.689 53.644 13.689 53.644 13.689 53.644 13.689"></polygon>
                        <path d="M38.636,22.488 C40.429,22.488 41.88,23.942 41.88,25.734 C41.88,27.526 40.429,28.978 38.636,28.978 L9.177,28.979 C7.383,28.979 5.934,27.528 5.934,25.735 C5.934,23.942 7.383,22.488 9.177,22.487 L38.636,22.487 L38.636,22.488 Z" id="Shape" fill="#EFBF94"></path>
                        <path d="M64.724,16.398 L64.724,19.09 C64.724,22.43 63.203,25.382 60.878,27.169 L58.627,28.432 L45.888,35.563 C45.69,35.68 45.478,35.772 45.274,35.84 L44.234,36.036 L31.325,38.526 C29.286,38.92 27.313,37.584 26.922,35.547 C26.851,35.188 26.835,34.829 26.869,34.479 C27.017,32.858 28.22,31.465 29.9,31.143 L41.129,28.978 L42.859,28.644 L64.724,16.398 Z" id="Shape" fill="#EFBF94"></path>
                        <path d="M33.69,15.074 C35.483,15.074 36.938,16.524 36.939,18.318 C36.938,20.111 35.485,21.562 33.69,21.562 L4.232,21.562 C2.442,21.562 0.987,20.112 0.987,18.318 C0.987,16.525 2.442,15.074 4.232,15.074 L33.69,15.074 Z" id="Shape" fill="#EFBF94"></path>
                        <path d="M36.939,7.656 C38.728,7.656 40.182,9.11 40.182,10.903 C40.182,12.699 38.728,14.149 36.939,14.149 L7.475,14.149 C5.685,14.148 4.232,12.695 4.232,10.903 C4.232,9.11 5.685,7.659 7.475,7.659 L36.939,7.656 Z" id="Shape" fill="#EFBF94"></path>
                        <path d="M43.222,0.343 C45.011,0.343 46.466,1.796 46.466,3.589 C46.466,5.382 45.014,6.834 43.219,6.834 L13.761,6.834 C11.969,6.834 10.516,5.382 10.516,3.589 C10.516,1.796 11.969,0.343 13.76,0.343 L43.222,0.343 Z" id="Shape" fill="#EFBF94"></path>
                        <path d="M38.289,0.343 L55.651,0.343 C60.661,0.344 64.723,4.775 64.723,10.231 L64.723,19.09 C64.723,22.43 63.202,25.382 60.877,27.169 C60.189,27.703 59.431,28.129 58.626,28.432 C57.694,28.787 56.694,28.979 55.65,28.979 L38.288,28.979 C33.276,28.979 29.218,24.548 29.218,19.09 L29.218,10.231 C29.219,4.774 33.277,0.343 38.289,0.343 Z" id="Shape" fill="#EFBF94"></path>
                        <rect id="Rectangle-path" fill="#EFBF94" x="57.743" y="2.792" width="15.601" height="23.226"></rect>
                        <path d="M18.691,24.003 C18.998,24.003 19.245,24.253 19.245,24.56 L19.245,26.908 C19.245,27.215 18.998,27.467 18.691,27.467 C18.382,27.467 18.135,27.216 18.135,26.908 L18.135,24.56 C18.136,24.253 18.383,24.003 18.691,24.003 Z" id="Shape" fill="#F2F2F2" opacity="0.31"></path>
                        <path d="M20.351,23.405 C20.661,23.405 20.914,23.659 20.914,23.972 L20.914,27.496 C20.914,27.809 20.66,28.064 20.351,28.064 C20.035,28.064 19.781,27.809 19.781,27.496 L19.781,23.972 C19.78,23.659 20.034,23.405 20.351,23.405 Z" id="Shape" fill="#F2F2F2" opacity="0.31"></path>
                        <path d="M16.179,16.587 C16.485,16.587 16.735,16.836 16.735,17.143 L16.735,19.491 C16.735,19.799 16.485,20.05 16.179,20.05 C15.869,20.05 15.62,19.799 15.62,19.491 L15.62,17.143 C15.62,16.836 15.869,16.587 16.179,16.587 Z" id="Shape" fill="#F2F2F2" opacity="0.31"></path>
                        <path d="M17.835,15.987 C18.148,15.987 18.404,16.243 18.404,16.558 L18.404,20.079 C18.404,20.394 18.147,20.648 17.835,20.648 C17.519,20.648 17.268,20.394 17.268,20.079 L17.268,16.558 C17.268,16.243 17.519,15.987 17.835,15.987 Z" id="Shape" fill="#F2F2F2" opacity="0.31"></path>
                        <path d="M17.569,9.171 C17.874,9.171 18.123,9.421 18.123,9.728 L18.123,12.077 C18.123,12.384 17.874,12.635 17.569,12.635 C17.261,12.635 17.012,12.384 17.012,12.077 L17.012,9.728 C17.013,9.42 17.262,9.171 17.569,9.171 Z" id="Shape" fill="#F2F2F2" opacity="0.31"></path>
                        <path d="M19.226,8.572 C19.539,8.572 19.792,8.826 19.792,9.139 L19.792,12.663 C19.792,12.977 19.538,13.227 19.226,13.227 C18.91,13.227 18.655,12.977 18.655,12.663 L18.655,9.139 C18.654,8.827 18.909,8.572 19.226,8.572 Z" id="Shape" fill="#F2F2F2" opacity="0.31"></path>
                        <path d="M19.214,1.859 C19.522,1.859 19.77,2.106 19.77,2.413 L19.77,4.762 C19.77,5.07 19.522,5.316 19.214,5.316 C18.907,5.316 18.654,5.07 18.654,4.762 L18.654,2.413 C18.654,2.106 18.907,1.859 19.214,1.859 Z" id="Shape" fill="#F2F2F2" opacity="0.31"></path>
                        <path d="M20.87,1.259 C21.184,1.259 21.436,1.513 21.436,1.827 L21.436,5.349 C21.436,5.663 21.184,5.915 20.87,5.915 C20.557,5.915 20.303,5.663 20.303,5.349 L20.303,1.827 C20.303,1.513 20.557,1.259 20.87,1.259 Z" id="Shape" fill="#F2F2F2" opacity="0.31"></path>
                    </g>
                    <rect id="Rectangle-path" fill="#F2F2F2" x="78.876" y="4.828" width="15.541" height="27.154"></rect>
                    <rect id="Rectangle-path" fill="#D1CACB" opacity="0.38" x="78.876" y="4.869" width="15.541" height="8.203"></rect>
                    <path d="M25.26,0.494 L84.211,0.494 L84.211,4.831 L78.866,4.831 L78.866,6.791 L70.616,6.791 C69.025,5.27 66.935,4.343 64.642,4.343 L22.75,4.343 C21.87,4.343 21.088,4.7 20.492,5.259 L25.26,0.494 Z" id="Shape" fill="#B3A193"></path>
                    <path d="M40.22,32.982 L50.12,32.982 L38.89,35.146 C38.534,35.217 38.202,35.324 37.89,35.492 L37.81,35.397 L40.22,32.982 Z" id="Shape" fill="#B3A193"></path>
                    <path d="M19.521,7.279 C19.507,7.375 19.507,7.48 19.507,7.589 C19.507,9.382 20.971,10.834 22.75,10.834 L38.77,10.834 C38.675,11.095 38.592,11.381 38.533,11.665 L16.466,11.665 C15.681,11.665 14.969,11.95 14.41,12.402 L19.521,7.279 Z" id="Shape" fill="#B3A193"></path>
                    <path d="M13.994,17.012 C14.6,17.713 15.478,18.154 16.466,18.154 L38.213,18.154 L38.213,19.079 L13.235,19.079 C12.472,19.079 11.772,19.341 11.223,19.779 L13.994,17.012 Z" id="Shape" fill="#B3A193"></path>
                    <path d="M17.784,25.567 L38.512,25.567 C38.57,25.888 38.665,26.197 38.771,26.494 L18.177,26.494 C17.417,26.494 16.716,26.756 16.157,27.196 L17.784,25.567 Z" id="Shape" fill="#B3A193"></path>
                    <rect id="Rectangle-path" fill="#A5A5AA" x="89.214" y="1.943" width="37.423" height="32.294"></rect>
                </g>
                <g transform="translate(126.000000, 73.000000)">
                    <path d="M54.23,50.571 C54.23,58.506 38.935,59.061 37.74,44.401 L41.308,43.079 C41.372,43.284 41.448,43.485 41.54,43.688 C43.264,47.685 48.286,50.571 54.23,50.571 Z" id="Shape" fill="#F2F2F2"></path>
                    <path d="M70.709,44.458 C69.481,59.061 54.23,58.496 54.23,50.571 C60.015,50.571 64.942,47.825 66.774,43.974 C66.894,43.718 67.012,43.449 67.101,43.181 L70.709,44.458 Z" id="Shape" fill="#F2F2F2"></path>
                    <path d="M87.371,67.757 L87.409,67.757 L87.409,72.545 L21.071,72.545 L21.071,67.757 C21.071,62.98 19.891,50.927 30.692,47.015 L30.708,47.015 L30.748,46.998 C30.768,46.998 30.768,46.98 30.785,46.98 L32.229,46.453 L37.731,44.394 C38.929,59.07 54.241,58.508 54.241,50.57 C54.241,58.487 69.475,59.07 70.709,44.448 L77.767,46.958 L77.767,47.014 C88.55,50.928 87.371,62.98 87.371,67.757 Z" id="Shape" fill="#6BC6C9"></path>
                    <path d="M66.774,43.975 C64.942,47.826 60.015,50.572 54.23,50.572 C48.286,50.572 43.263,47.686 41.541,43.689 L46.411,41.965 L46.411,35.271 L61.751,35.271 L61.751,41.965 L66.774,43.975 Z" id="Shape" fill="#E9C5A7"></path>
                    <path d="M67.549,23.421 C67.549,29.109 65.15,34.118 61.508,37.043 C59.379,38.759 56.825,39.753 54.073,39.753 C51.395,39.753 48.913,38.815 46.814,37.18 C43.312,34.47 40.913,29.83 40.623,24.496 C40.603,24.136 40.595,23.784 40.595,23.421 C40.595,23.048 40.604,22.671 40.629,22.308 C44.62,22.288 50.17,20.1 52.544,19.058 C55.84,17.743 58.759,15.427 60.588,12.352 C61.921,14.913 64.359,18.004 67.022,18.885 C67.058,19.037 67.092,19.191 67.124,19.343 C67.158,19.495 67.187,19.647 67.215,19.795 L67.215,19.799 C67.432,20.961 67.549,22.174 67.549,23.421 Z" id="Shape" fill="#F3D2B2"></path>
                    <path d="M46.814,37.18 C43.312,34.47 40.913,29.83 40.623,24.496 C40.599,24.136 40.595,23.782 40.595,23.418 C40.595,23.043 40.599,22.671 40.629,22.308 C44.62,22.288 50.17,20.098 52.544,19.06 C55.838,17.745 58.759,15.426 60.588,12.348 C61.921,14.915 64.357,18.001 67.022,18.886 C67.092,19.19 67.158,19.494 67.214,19.798 C67.438,20.964 67.55,22.179 67.55,23.418 C67.55,29.108 65.15,34.117 61.508,37.043 C66.764,39.802 70.318,33.58 71.546,30.289 C72.805,26.95 72.729,23.801 71.546,18.909 C69.96,14.309 68.831,12.763 66.54,9.753 C63.02,5.129 58.681,3.497 53.514,3.497 C46.341,3.497 44.535,6.624 41.39,9.796 C38.736,13.326 36.422,18.365 35.867,22.537 C34.767,30.408 39.295,41.738 46.814,37.18 Z" id="Shape" fill="#572F2F"></path>
                    <g opacity="0.13" transform="translate(40.000000, 12.000000)" fill="#4D4D4D" id="Shape">
                        <path d="M0.595,11.421 C0.595,11.784 0.604,12.136 0.623,12.496 C3.868,12.2 7.712,10.876 11.208,8.942 C15.202,6.744 18.755,3.755 20.443,0.629 C20.492,0.535 20.542,0.446 20.589,0.351 C18.758,3.426 15.839,5.745 12.543,7.06 C10.169,8.098 4.619,10.288 0.628,10.308 C0.604,10.671 0.595,11.048 0.595,11.421 Z"></path>
                    </g>
                    <g opacity="0.48" transform="translate(60.000000, 12.000000)" fill="#8CACB2" id="Shape">
                        <path d="M0.59,0.352 C1.113,2.666 3.237,6.389 7.214,7.802 C7.157,7.495 7.092,7.191 7.022,6.887 C4.358,6.002 1.921,2.916 0.59,0.352 Z"></path>
                    </g>
                    <rect id="Rectangle-path" fill="#A7756C" x="0.07" y="72.549" width="104.487" height="11.65"></rect>
                    <rect id="Rectangle-path" fill="#A7756C" x="6.668" y="84.199" width="92.769" height="11.649"></rect>
                    <path d="M84.749,68.99 L84.749,72.899 L69.306,72.899 L69.306,68.99 L76.083,68.99 L76.083,52.816 L69.887,46.603 C69.286,46.978 68.596,47.18 67.848,47.18 C65.66,47.18 63.897,45.404 63.897,43.235 C63.897,41.043 65.66,39.284 67.848,39.284 C70.022,39.284 71.794,41.043 71.794,43.235 C71.794,43.983 71.593,44.673 71.216,45.274 L77.954,52.052 L77.954,68.991 L84.749,68.991 L84.749,68.99 Z" id="Shape" fill="#4C6F8B"></path>
                    <path d="M82.424,31.77 C81.47,34.902 79.604,38.139 77.49,40.212 C81.616,39.63 85.948,37.823 88.291,34.86 C91.28,35.956 94.64,36.582 98.164,36.582 C110.896,36.582 121.226,28.597 121.226,18.766 C121.226,8.914 110.897,0.932 98.164,0.932 C85.433,0.932 75.102,8.915 75.102,18.766 C75.103,23.89 77.922,28.514 82.424,31.77 Z" id="Shape" fill="#E4F0EE"></path>
                    <rect id="Rectangle-path" fill="#C7C5CE" opacity="0.53" x="6.668" y="84.199" width="92.769" height="5.825"></rect>
                </g>
                <path d="M147.535,128.17 L58.81,128.17 L58.106,120.017 L57.485,112.964 L57.399,112.006 L57.372,111.949 L56.357,109.621 L53.858,103.922 L53.858,100.762 L54.973,99.972 L54.987,99.972 L56.357,95.599 L56.357,95.584 L56.805,94.16 L58.287,83.016 L56.805,79.164 L56.805,79.136 L70.095,84.934 L70.997,85.328 C71.096,85.385 71.195,85.441 71.293,85.483 C71.392,85.539 71.505,85.595 71.605,85.624 C71.83,85.724 72.055,85.794 72.295,85.822 C72.422,85.864 72.563,85.892 72.704,85.892 C72.83,85.907 72.972,85.92 73.113,85.92 C73.296,85.92 73.479,85.906 73.662,85.878 L74.045,85.821 L84.905,84.41 L90.83,83.635 L90.83,85.863 C90.32,86.146 89.913,86.568 89.672,87.105 C88.234,87.528 86.78,88.233 85.582,88.967 C84.256,89.786 82.972,90.575 81.393,90.505 C80.589,90.476 79.883,90.35 79.206,90.11 C78.783,89.984 78.375,89.799 77.965,89.588 C77.979,89.518 77.994,89.432 77.994,89.362 C77.994,88.699 77.458,88.163 76.794,88.163 C76.131,88.163 75.597,88.699 75.597,89.362 C75.597,90.025 76.131,90.561 76.794,90.561 C76.993,90.561 77.177,90.505 77.33,90.42 C77.416,90.476 77.485,90.52 77.555,90.561 L76.92,91.761 L76.232,93.087 L72.097,100.958 C72.084,100.987 72.084,101.028 72.084,101.057 L71.464,101.057 L71.464,102.073 L72.282,102.073 C73.171,104.357 75.384,105.98 77.994,105.98 C80.589,105.98 82.817,104.357 83.691,102.073 L84.511,102.073 L84.511,101.057 L83.903,101.057 C83.903,101.028 83.889,100.987 83.875,100.958 L81.393,96.232 L78.741,91.182 C79.645,91.606 80.561,91.902 81.479,91.987 C82.549,92.1 84.186,91.831 85.583,91.07 C86.823,90.393 88.263,89.659 89.702,89.223 C90.097,90.111 91.001,90.717 92.029,90.717 C93.073,90.717 93.976,90.111 94.371,89.223 C95.668,89.617 96.968,90.253 98.123,90.873 C98.249,90.929 98.378,91 98.505,91.07 C99.885,91.831 101.524,92.1 102.596,91.987 C103.569,91.888 104.527,91.564 105.487,91.098 L100.325,100.958 C100.31,100.987 100.297,101.028 100.297,101.057 L99.691,101.057 L99.691,102.073 L100.509,102.073 C101.383,104.357 103.612,105.98 106.208,105.98 C106.475,105.98 106.73,105.965 106.982,105.937 C109.253,105.641 111.114,104.131 111.905,102.073 L112.723,102.073 L112.723,101.057 L112.117,101.057 C112.117,101.028 112.103,100.987 112.09,100.958 L106.983,91.211 L106.983,90.477 C107.11,90.534 107.251,90.562 107.406,90.562 C108.069,90.562 108.591,90.026 108.591,89.363 C108.591,89.307 108.591,89.251 108.577,89.195 L119.665,100.28 L132.33,112.961 L147.535,128.17 Z" id="Shape" fill="#AAAEB7"></path>
                <polygon id="Shape" fill="#AAAEB7" points="111.68 101.059 106.403 101.059 106.403 91.016 106.981 92.116"></polygon>
                <polygon id="Shape" fill="#AAAEB7" points="105.994 91.016 105.994 101.059 100.733 101.059"></polygon>
                <polygon id="Shape" fill="#AAAEB7" points="77.783 91.016 77.783 101.059 72.507 101.059 77.204 92.116 77.247 92.088 77.233 92.074"></polygon>
                <polygon id="Shape" fill="#AAAEB7" points="83.468 101.059 78.192 101.059 78.192 91.128 78.235 91.086 80.421 95.261"></polygon>
                <path d="M106.981,87.602 L106.981,88.251 C106.53,88.42 106.207,88.857 106.207,89.365 C106.207,89.422 106.207,89.478 106.22,89.534 C105.105,90.126 104.021,90.466 102.679,90.507 C101.1,90.578 99.817,89.788 98.505,88.969 C98.378,88.899 98.249,88.815 98.123,88.758 C96.994,88.094 95.685,87.488 94.386,87.107 C94.16,86.57 93.75,86.148 93.243,85.865 L93.243,83.326 L93.326,83.312 C95.584,83.016 97.178,80.942 96.895,78.685 C96.797,77.923 96.501,77.247 96.063,76.682 L98.123,78.741 L106.981,87.602 Z" id="Shape" fill="#AAAEB7"></path>
                <path d="M81.365,76.548 L73.79,77.535 L65.186,73.783 L59.685,71.385 L59.262,71.202 L57.964,70.638 L58.203,68.917 L57.751,68.692 L57.694,68.664 C57.668,68.648 57.626,68.635 57.597,68.621 C56.875,68.268 56.171,67.916 55.439,67.549 C55.2,67.437 54.875,67.323 54.592,67.169 C54.323,67.634 53.97,68.101 53.591,68.523 C53.422,68.466 53.223,68.41 53.013,68.369 C52.588,68.269 52.095,68.199 51.516,68.184 C51.404,68.17 51.29,68.17 51.163,68.17 C50.585,68.17 50.078,68.101 49.612,67.973 C49.401,67.903 49.202,67.832 49.006,67.748 C48.964,67.748 48.936,67.733 48.893,67.705 C48.707,67.606 48.541,67.508 48.372,67.409 C48.217,67.297 48.06,67.184 47.92,67.071 L47.92,63.347 L48.527,63.079 L51.037,61.964 L51.052,61.95 L52.928,58.819 L52.998,58.706 L52.94,57.874 L62.688,57.874 L63.632,58.819 L66.765,61.95 L67.894,63.079 L70.841,66.026 L73.506,68.693 L76.018,71.203 L81.365,76.548 Z" id="Shape" fill="#C3C7D1"></path>
            </g>
        </g>
    </g>
</svg>