<?xml version="1.0" encoding="UTF-8"?>
<svg width="271px" height="261px" viewBox="0 0 271 261" version="1.1" xmlns="http://www.w3.org/2000/svg" xmlns:xlink="http://www.w3.org/1999/xlink">
    <!-- Generator: Sketch 48.1 (47250) - http://www.bohemiancoding.com/sketch -->
    <title>Group</title>
    <desc>Created with Sketch.</desc>
    <defs></defs>
    <g id="Page-1" stroke="none" stroke-width="1" fill="none" fill-rule="evenodd">
        <g id="Group" fill-rule="nonzero">
            <g transform="translate(100.000000, 152.000000)" id="Shape">
                <path d="M22.758,55.092 C16.944,54.45 11.148,56.152 9.814,58.891 C8.479,61.632 12.109,64.373 17.923,65.014 C23.737,65.657 29.534,63.956 30.869,61.215 C32.203,58.474 28.572,55.734 22.758,55.092 Z" fill="#83C4C7"></path>
                <path d="M16.632,18.866 L13.986,26.273 C13.986,26.273 8.386,27.492 7.509,27.64 C6.585,27.798 4.279,30.973 1.848,29.504 C-0.582,28.037 1.525,27.219 2.873,27.034 C4.223,26.847 4.727,26.427 4.121,26.208 C3.517,25.987 2.282,26.588 2.274,25.999 C2.264,25.41 3.92,24.928 4.854,25.213 C5.79,25.5 6.794,25.472 7.467,25.379 C8.143,25.287 12.196,23.253 12.196,23.253 L12.979,18.62 L16.632,18.866 Z" fill="#F6BDA2"></path>
                <path d="M22.8,58.917 C22.321,59.271 19.074,60.079 19.394,61.898 C19.713,63.716 26.085,61.681 25.94,59.624 C25.834,58.109 23.279,58.564 22.8,58.917 Z" fill="#5C4444"></path>
                <path d="M16.199,56.29 C15.72,56.644 12.472,57.452 12.793,59.271 C13.112,61.089 19.485,59.053 19.34,56.997 C19.233,55.48 16.679,55.936 16.199,56.29 Z" fill="#5C4444"></path>
                <path d="M14.496,34.41 C14.496,34.41 15.585,56.525 16.572,56.996 C17.559,57.469 19.287,57.147 19.287,57.147 L20.537,34.568 L14.496,34.41 Z" fill="#947259"></path>
                <path d="M20.537,34.569 C20.537,34.569 22.292,58.723 23.279,59.422 C24.265,60.122 25.994,59.574 25.994,59.574 L27.028,34.741 L20.537,34.569 Z" fill="#947259"></path>
                <path d="M22.989,12.204 C22.989,12.204 27.354,12.658 27.514,16.523 C27.674,20.389 27.725,34.317 27.725,34.847 C27.725,35.378 25.855,37.73 20.139,37.424 C14.698,37.133 13.955,35.587 13.955,34.643 C13.955,32.672 14.231,17.653 15.269,14.47 C16.309,11.289 20.676,11.522 22.989,12.204 Z" fill="#315A99"></path>
                <path d="M18.904,9.669 C18.904,9.669 18.909,13.906 19.382,14.242 C19.853,14.577 22.445,14.129 22.445,12.676 C22.445,11.223 22.414,9.294 22.414,9.294 L18.904,9.669 Z" fill="#D8A78E"></path>
                <path d="M17.872,12.828 C17.872,12.828 14.669,12.613 13.839,14.75 C13.007,16.886 11.649,20.598 12.677,20.933 C13.704,21.266 14.626,21.588 15.064,21.541 C15.499,21.495 18.068,15.3 17.872,12.828 Z" fill="#315A99"></path>
                <path d="M16.195,3.489 C16.195,3.489 15.807,11.997 18.56,12.405 C20.625,12.711 23.444,11.767 23.534,8.962 C23.625,6.156 24.516,2.023 22.569,2.018 C20.62,2.013 15.97,1.596 16.195,3.489 Z" fill="#F6BDA2"></path>
                <path d="M24.9,2.997 C24.9,2.997 25.056,5.841 25.007,7.111 C24.958,8.382 23.499,9.728 22.999,9.228 C22.499,8.728 22.716,4.069 22.716,4.069 L24.9,2.997 Z" fill="#4B2D00"></path>
                <path d="M19.835,0.398 C19.835,0.398 15.815,0.579 15.366,2.415 C14.916,4.251 15.46,5.671 16.175,5.55 C16.889,5.431 20.009,4.334 20.521,3.622 C20.521,3.622 21.751,8.264 22.84,7.237 C23.929,6.212 25.74,4.463 24.538,1.871 C23.336,-0.72 19.835,0.398 19.835,0.398 Z" fill="#4B2D00"></path>
                <path d="M22.613,7.559 C22.613,7.559 23.191,6.079 24.079,6.709 C24.967,7.339 24.249,9.798 23.159,9.375 C22.069,8.949 22.613,7.559 22.613,7.559 Z" fill="#F6BDA2"></path>
                <path d="M28.483,19.414 C28.483,19.414 28.661,23.404 28.506,26.727 C28.417,28.646 28.223,30.867 28.162,31.356 C28.009,32.58 27.665,35.106 27.665,35.106 C27.665,35.106 27.715,36.363 27.818,36.828 C28.123,38.189 28.378,40.712 26.146,41.129 C24.25,41.483 24.802,38.465 25.483,36.129 C25.597,35.744 25.333,33.44 25.292,31.587 C25.243,29.414 25.435,28.903 25.369,26.499 C25.291,23.475 24.53,19.803 24.53,19.803 L28.483,19.414 Z" fill="#F5BCA1"></path>
                <path d="M27.583,14.378 C26.81,13.414 24.253,12.924 23.51,14.787 C22.767,16.649 23.498,22.87 24.283,23.195 C24.792,23.407 26.048,23.569 26.98,23.438 C28.12,23.278 28.529,22.595 28.779,22.193 C29.171,21.563 28.892,16.008 27.583,14.378 Z" fill="#315A99"></path>
            </g>
            <g transform="translate(41.000000, 0.000000)" id="Shape">
                <path d="M4.245,20.754 C4.245,20.754 3.482,27.556 3.38,29.698 C3.278,31.841 3.329,33.779 3.38,34.646 C3.431,35.513 2.188,37.52 3.278,38.727 C4.707,40.309 6.032,39.083 5.726,36.993 C5.42,34.902 5.982,33.626 6.083,32.402 C6.185,31.177 6.031,20.516 6.031,20.516 L4.245,20.754 Z" fill="#F5BCA1"></path>
                <path d="M13.604,55.888 C7.79,55.245 1.994,56.947 0.66,59.686 C-0.675,62.428 2.955,65.168 8.77,65.809 C14.583,66.453 20.38,64.752 21.715,62.011 C23.049,59.269 19.419,56.53 13.604,55.888 Z" fill="#83C4C7"></path>
                <path d="M13.647,59.713 C13.167,60.067 9.92,60.875 10.239,62.694 C10.558,64.512 16.931,62.477 16.787,60.42 C16.681,58.905 14.125,59.36 13.647,59.713 Z" fill="#5C4444"></path>
                <path d="M11.85,56.829 C11.456,57.274 8.446,58.738 9.136,60.452 C9.825,62.164 15.637,58.85 15.07,56.869 C14.65,55.408 12.246,56.383 11.85,56.829 Z" fill="#372727"></path>
                <path d="M6.363,35.446 C6.363,35.446 5.631,41.229 7.229,46.771 C8.735,51.992 11.844,57.319 12.361,57.444 C13.424,57.701 15.048,57.028 15.048,57.028 L11.821,45.853 L11.587,34.682 L6.363,35.446 Z" fill="#715542"></path>
                <path d="M11.384,35.365 C11.384,35.365 13.138,59.519 14.125,60.218 C15.112,60.918 16.84,60.37 16.84,60.37 L17.875,35.537 L11.384,35.365 Z" fill="#947259"></path>
                <path d="M13.836,13 C13.836,13 18.201,13.455 18.361,17.319 C18.521,21.185 18.572,35.113 18.572,35.643 C18.572,36.174 16.702,38.526 10.986,38.22 C5.544,37.929 5.393,36.236 5.393,35.292 C5.393,33.321 5.809,18.963 6.847,15.78 C7.886,12.598 11.521,12.318 13.836,13 Z" fill="#00AA75"></path>
                <path d="M9.75,10.465 C9.75,10.465 9.755,14.702 10.228,15.037 C10.699,15.372 13.291,14.925 13.291,13.471 C13.291,12.018 13.259,10.089 13.259,10.089 L9.75,10.465 Z" fill="#D8A78E"></path>
                <path d="M8.718,13.624 C8.718,13.624 5.516,13.409 4.685,15.546 C3.854,17.682 2.496,21.394 3.523,21.729 C4.55,22.062 5.473,22.384 5.91,22.337 C6.345,22.291 8.915,16.096 8.718,13.624 Z" fill="#00AA75"></path>
                <path d="M7.041,4.285 C7.041,4.285 6.653,12.794 9.406,13.202 C11.472,13.508 14.29,12.564 14.38,9.758 C14.471,6.953 15.363,2.82 13.414,2.814 C11.466,2.809 6.816,2.392 7.041,4.285 Z" fill="#F6BDA2"></path>
                <path d="M15.746,3.792 C15.746,3.792 15.902,6.636 15.854,7.906 C15.804,9.177 14.345,10.523 13.846,10.023 C13.346,9.523 13.563,4.864 13.563,4.864 L15.746,3.792 Z" fill="#C24300"></path>
                <path d="M10.682,1.194 C10.682,1.194 7.88,1.203 6.886,3.04 C5.986,4.703 7.562,4.999 8.263,5.182 C9.143,5.412 11.706,5.986 12.663,5.641 C12.663,5.641 12.597,9.059 13.686,8.033 C14.774,7.007 16.586,5.258 15.384,2.667 C14.182,0.077 10.682,1.194 10.682,1.194 Z" fill="#C24300"></path>
                <path d="M13.46,8.355 C13.46,8.355 14.037,6.875 14.926,7.505 C15.813,8.135 15.095,10.595 14.005,10.171 C12.916,9.745 13.46,8.355 13.46,8.355 Z" fill="#F6BDA2"></path>
                <path d="M19.826,19.389 C19.826,19.389 20.918,22.639 21.1,25.959 C21.206,27.877 20.602,35.083 20.602,35.083 C20.602,35.083 20.781,36.328 20.929,36.78 C21.372,38.104 21.88,40.588 19.703,41.229 C17.852,41.773 18.095,38.715 18.536,36.322 C18.61,35.928 18.265,28.436 17.956,26.05 C17.572,23.05 15.934,20.176 15.934,20.176 L19.826,19.389 Z" fill="#F5BCA1"></path>
                <path d="M17.916,14.434 C16.974,13.635 14.37,13.641 13.995,15.611 C13.62,17.581 15.522,23.548 16.354,23.717 C16.895,23.828 18.159,23.748 19.049,23.442 C20.137,23.068 20.409,22.32 20.578,21.878 C20.844,21.185 19.511,15.785 17.916,14.434 Z" fill="#00AA75"></path>
            </g>
            <g transform="translate(135.000000, 105.000000)" id="Shape">
                <path d="M4.775,20.042 C4.775,20.042 4.927,21.93 5.031,23.001 C5.133,24.073 4.724,26.827 4.622,28.97 C4.52,31.113 4.571,33.051 4.622,33.918 C4.674,34.785 3.429,36.792 4.52,37.999 C5.949,39.581 7.276,38.355 6.969,36.265 C6.662,34.174 7.224,32.898 7.326,31.674 C7.428,30.449 7.275,19.788 7.275,19.788 L4.775,20.042 Z" fill="#F5BCA1"></path>
                <path d="M14.081,55.159 C8.267,54.517 2.47,56.219 1.136,58.958 C-0.198,61.7 3.432,64.44 9.247,65.081 C15.06,65.725 20.858,64.024 22.192,61.283 C23.526,58.542 19.896,55.801 14.081,55.159 Z" fill="#83C4C7"></path>
                <path d="M14.124,58.985 C13.645,59.339 10.396,60.147 10.716,61.966 C11.036,63.785 17.408,61.749 17.264,59.692 C17.157,58.176 14.602,58.631 14.124,58.985 Z" fill="#342245"></path>
                <path d="M7.522,56.357 C7.044,56.711 3.795,57.519 4.116,59.338 C4.434,61.156 10.808,59.12 10.664,57.064 C10.558,55.548 8.002,56.003 7.522,56.357 Z" fill="#342245"></path>
                <path d="M5.819,34.478 C5.819,34.478 6.909,56.593 7.894,57.065 C8.882,57.537 10.61,57.216 10.61,57.216 L11.86,34.637 L5.819,34.478 Z" fill="#00658F"></path>
                <path d="M11.86,34.637 C11.86,34.637 13.614,58.791 14.601,59.49 C15.589,60.19 17.317,59.642 17.317,59.642 L18.351,34.809 L11.86,34.637 Z" fill="#00658F"></path>
                <path d="M13.786,12.306 C13.786,12.306 18.678,12.726 18.838,16.591 C18.998,20.457 19.049,34.385 19.049,34.915 C19.049,35.446 17.179,37.798 11.464,37.492 C6.022,37.201 5.279,35.655 5.279,34.711 C5.279,32.74 5.855,17.804 6.592,14.538 C7.052,12.51 11.471,11.624 13.786,12.306 Z" fill="#F13554"></path>
                <path d="M10.228,9.736 C10.228,9.736 10.233,13.973 10.705,14.309 C11.177,14.645 13.768,14.196 13.768,12.743 C13.768,11.29 13.736,9.361 13.736,9.361 L10.228,9.736 Z" fill="#D8A78E"></path>
                <path d="M9.45,12.641 C9.45,12.641 6.248,12.426 5.417,14.563 C4.587,16.699 3.227,20.411 4.256,20.746 C5.282,21.079 6.205,21.401 6.642,21.354 C7.077,21.307 9.647,15.112 9.45,12.641 Z" fill="#F13554"></path>
                <path d="M7.518,3.556 C7.518,3.556 7.131,12.065 9.883,12.473 C11.949,12.779 14.768,11.835 14.857,9.03 C14.949,6.224 15.84,2.091 13.892,2.086 C11.943,2.081 7.293,1.664 7.518,3.556 Z" fill="#F6BDA2"></path>
                <path d="M16.224,3.064 C16.224,3.064 16.38,5.908 16.331,7.178 C16.282,8.449 14.823,9.795 14.324,9.295 C13.824,8.795 14.04,4.136 14.04,4.136 L16.224,3.064 Z" fill="#DA9200"></path>
                <path d="M11.159,0.465 C11.159,0.465 8.281,0.474 7.256,2.243 C6.308,3.879 6.783,5.738 7.498,5.617 C7.767,5.572 8.182,5.445 8.709,5.188 C9.236,4.933 10.239,4.232 10.239,4.232 C10.239,4.232 10.086,4.73 9.895,5.494 C10.851,5.303 12.114,4.308 12.381,3.734 C12.463,3.561 13.073,8.33 14.163,7.303 C15.251,6.278 17.062,4.528 15.861,1.937 C14.66,-0.652 11.159,0.465 11.159,0.465 Z" fill="#DA9200"></path>
                <path d="M13.937,7.627 C13.937,7.627 14.516,6.146 15.402,6.776 C16.291,7.406 15.573,9.866 14.483,9.442 C13.394,9.017 13.937,7.627 13.937,7.627 Z" fill="#F6BDA2"></path>
                <path d="M20.01,19.532 C20.01,19.532 20.188,23.522 20.034,26.845 C19.946,28.764 19.751,30.985 19.689,31.474 C19.536,32.698 19.192,35.224 19.192,35.224 C19.192,35.224 19.243,36.48 19.344,36.946 C19.651,38.307 19.906,40.83 17.674,41.247 C15.778,41.601 16.328,38.583 17.011,36.247 C17.124,35.862 16.86,33.557 16.82,31.704 C16.77,29.531 16.962,29.02 16.896,26.615 C16.818,23.591 16.058,19.92 16.058,19.92 L20.01,19.532 Z" fill="#F5BCA1"></path>
                <path d="M19.11,14.496 C18.338,13.533 15.781,13.042 15.038,14.905 C14.295,16.767 15.025,22.988 15.809,23.313 C16.319,23.525 17.576,23.687 18.508,23.556 C19.646,23.395 20.056,22.713 20.306,22.31 C20.697,21.681 20.417,16.126 19.11,14.496 Z" fill="#F13554"></path>
            </g>
            <g transform="translate(157.000000, 121.000000)" id="Shape">
                <path d="M13.368,54.314 C7.554,53.671 1.757,55.374 0.423,58.113 C-0.911,60.855 2.719,63.595 8.534,64.236 C14.347,64.879 20.145,63.178 21.479,60.438 C22.813,57.696 19.183,54.957 13.368,54.314 Z" fill="#83C4C7"></path>
                <g transform="translate(5.000000, 34.000000)">
                    <path d="M3.562,22.52 C3.562,22.52 2.548,23.515 1.962,23.974 C1.375,24.433 0.692,25.001 0.922,25.485 C1.151,25.97 1.82,26.442 3.524,25.485 C5.284,24.497 5.737,23.924 5.762,23.387 C5.789,22.812 5.533,22.29 5.533,22.29 L3.562,22.52 Z" fill="#342245"></path>
                    <path d="M2.089,0.099 C2.089,0.099 2.089,4.69 2.472,9.128 C2.855,13.566 3.466,22.978 3.466,22.978 C3.466,22.978 3.569,23.616 4.64,23.31 C5.711,23.004 5.558,21.984 5.558,21.525 C5.558,21.067 6.005,14.616 5.813,13.618 C5.558,12.291 5.202,11.22 5.457,10.404 C5.712,9.588 6.018,0.559 6.018,0.559 L2.089,0.099 Z" fill="#F5BCA1"></path>
                </g>
                <g transform="translate(10.000000, 35.000000)">
                    <path d="M3.204,22.692 C3.204,22.692 2.19,23.687 1.602,24.146 C1.016,24.605 0.334,25.172 0.564,25.657 C0.793,26.141 1.462,26.614 3.166,25.657 C4.925,24.669 5.378,24.095 5.404,23.559 C5.429,22.985 5.175,22.462 5.175,22.462 L3.204,22.692 Z" fill="#342245"></path>
                    <path d="M1.731,0.271 C1.731,0.271 1.731,4.862 2.114,9.301 C2.496,13.739 3.108,23.151 3.108,23.151 C3.108,23.151 3.21,23.789 4.282,23.483 C5.352,23.177 5.199,22.157 5.199,21.698 C5.199,21.239 5.647,14.788 5.454,13.791 C5.199,12.464 4.842,11.393 5.098,10.577 C5.353,9.761 5.66,0.732 5.66,0.732 L1.731,0.271 Z" fill="#F5BCA1"></path>
                </g>
                <path d="M4.624,19.605 C4.624,19.605 4.767,21.358 4.862,22.353 C4.956,23.348 4.577,25.907 4.482,27.896 C4.387,29.885 4.435,31.687 4.482,32.492 C4.53,33.297 3.375,35.161 4.387,36.283 C5.714,37.752 6.946,36.614 6.661,34.672 C6.378,32.73 6.898,31.545 6.993,30.408 C7.088,29.271 6.945,19.368 6.945,19.368 L4.624,19.605 Z" fill="#F5BCA1"></path>
                <path d="M8.681,13.209 C8.681,13.209 6.792,13.148 5.434,15.081 C4.169,16.88 4.015,20.563 4.406,21.103 C4.799,21.642 6.386,21.784 6.805,21.739 C7.222,21.694 8.87,15.581 8.681,13.209 Z" fill="#F38600"></path>
                <path d="M10.489,12.862 C8.946,12.862 7.282,13.058 6.792,14.478 C6.302,15.897 5.519,19.13 6.106,20.06 C6.693,20.99 7.037,25.642 6.938,27.11 C6.84,28.579 4.931,37.343 4.882,40.037 C4.833,42.729 4.882,43.268 4.882,43.268 C4.882,43.268 6.062,44.878 10.121,45.128 C15.702,45.471 18.003,43.146 18.492,42.019 C18.982,40.892 17.465,32.544 16.877,30.194 C16.291,27.843 16.314,23.486 16.217,21.527 C16.118,19.569 17.025,16.091 15.262,14.55 C13.085,12.647 12.031,12.862 10.489,12.862 Z" fill="#F38600"></path>
                <g transform="translate(5.000000, 0.000000)">
                    <path d="M1.267,4 C1.267,4 1.302,7.378 1.229,10.071 C1.162,12.58 0.74,13.744 1.622,13.793 C2.504,13.841 4.351,12.997 4.792,10.94 C5.232,8.884 3.972,3.559 3.972,3.559 L1.267,4 Z" fill="#7E5C4A"></path>
                    <path d="M4.146,9.673 C4.146,9.673 4.448,13.74 4.901,14.062 C5.355,14.384 7.544,13.954 7.544,12.559 C7.544,11.164 7.362,9.326 7.362,9.326 L4.146,9.673 Z" fill="#D8A78E"></path>
                    <path d="M1.545,3.741 C1.545,3.741 1.173,11.908 3.815,12.299 C5.797,12.593 8.378,10.952 8.464,8.259 C8.551,5.566 9.531,2.333 7.661,2.328 C5.791,2.325 1.328,1.925 1.545,3.741 Z" fill="#F6BDA2"></path>
                    <path d="M9.899,3.269 C11.07,5.224 10.578,10.713 10.532,11.932 C10.484,13.152 7.878,15.203 7.398,14.723 C6.919,14.242 7.804,4.297 7.804,4.297 C7.804,4.297 8.729,1.314 9.899,3.269 Z" fill="#7E5C4A"></path>
                    <path d="M5.038,0.775 C5.038,0.775 2.276,0.783 1.292,2.481 C0.383,4.051 0.839,5.835 1.523,5.719 C1.784,5.676 2.181,5.554 2.687,5.309 C3.192,5.063 4.157,4.391 4.157,4.391 C4.157,4.391 4.01,4.869 3.825,5.602 C4.744,5.418 5.956,4.464 6.213,3.914 C6.291,3.747 6.877,8.325 7.922,7.339 C8.967,6.355 10.706,4.676 9.553,2.189 C8.399,-0.297 5.038,0.775 5.038,0.775 Z" fill="#7E5C4A"></path>
                </g>
                <g transform="translate(13.000000, 13.000000)">
                    <path d="M4.932,7.243 C4.932,7.243 5.081,10.59 4.953,13.375 C4.879,14.984 4.715,16.847 4.665,17.257 C4.536,18.285 4.248,20.402 4.248,20.402 C4.248,20.402 4.291,21.456 4.376,21.846 C4.633,22.988 4.845,25.104 2.975,25.452 C1.385,25.75 1.847,23.218 2.418,21.26 C2.514,20.937 2.292,19.005 2.258,17.45 C2.217,15.628 2.378,15.2 2.322,13.183 C2.257,10.647 1.619,7.569 1.619,7.569 L4.932,7.243 Z" fill="#F5BCA1"></path>
                    <path d="M3.658,1.38 C2.917,0.455 1.14,0.18 0.427,1.967 C-0.286,3.755 0.749,9.39 1.504,9.703 C1.992,9.906 2.664,9.927 3.561,9.802 C4.654,9.648 5.036,8.768 5.274,8.382 C5.649,7.778 4.914,2.945 3.658,1.38 Z" fill="#F38600"></path>
                </g>
            </g>
            <g transform="translate(79.000000, 156.000000)" id="Shape">
                <path d="M8.391,54.113 C14.204,53.47 20.001,55.173 21.335,57.912 C22.67,60.653 19.04,63.394 13.224,64.035 C7.411,64.678 1.614,62.977 0.28,60.236 C-1.056,57.495 2.575,54.755 8.391,54.113 Z" fill="#83C4C7"></path>
                <g transform="translate(6.000000, 33.000000)">
                    <path d="M7.196,23.318 C7.196,23.318 8.21,24.313 8.797,24.772 C9.383,25.23 10.067,25.798 9.837,26.283 C9.607,26.767 8.938,27.239 7.235,26.283 C5.475,25.294 5.021,24.721 4.997,24.185 C4.97,23.611 5.226,23.088 5.226,23.088 L7.196,23.318 Z" fill="#513B6F"></path>
                    <path d="M8.67,0.898 C8.67,0.898 8.67,5.489 8.287,9.927 C7.904,14.365 7.292,23.777 7.292,23.777 C7.292,23.777 7.19,24.415 6.12,24.109 C5.048,23.803 5.201,22.783 5.201,22.324 C5.201,21.865 4.754,15.414 4.945,14.417 C5.201,13.09 5.558,12.019 5.302,11.203 C5.047,10.387 4.741,1.357 4.741,1.357 L8.67,0.898 Z" fill="#F5BCA1"></path>
                    <path d="M5.119,20.773 C5.165,21.593 5.201,22.194 5.201,22.324 C5.201,22.783 5.048,23.803 6.12,24.109 C7.19,24.415 7.292,23.777 7.292,23.777 C7.292,23.777 7.37,22.582 7.487,20.846 C6.476,21.219 5.656,21.029 5.119,20.773 Z" fill="#B7A18C"></path>
                    <path d="M2.555,24.491 C2.555,24.491 3.569,25.486 4.155,25.945 C4.743,26.404 5.426,26.972 5.196,27.456 C4.967,27.941 4.297,28.413 2.593,27.456 C0.834,26.468 0.381,25.895 0.355,25.358 C0.328,24.784 0.585,24.261 0.585,24.261 L2.555,24.491 Z" fill="#513B6F"></path>
                    <path d="M4.028,2.071 C4.028,2.071 4.028,6.662 3.645,11.1 C3.262,15.538 2.65,24.95 2.65,24.95 C2.65,24.95 2.547,25.588 1.476,25.282 C0.405,24.976 0.558,23.956 0.558,23.497 C0.558,23.039 0.111,16.588 0.303,15.59 C0.558,14.263 0.915,13.192 0.66,12.376 C0.404,11.56 0.098,2.531 0.098,2.531 L4.028,2.071 Z" fill="#F5BCA1"></path>
                    <path d="M0.477,21.936 C0.523,22.762 0.559,23.367 0.559,23.497 C0.559,23.956 0.406,24.976 1.477,25.282 C2.548,25.588 2.651,24.95 2.651,24.95 C2.651,24.95 2.727,23.769 2.843,22.051 C1.825,22.408 1.003,22.198 0.477,21.936 Z" fill="#B7A18C"></path>
                </g>
                <path d="M17.134,19.404 C17.134,19.404 16.991,21.157 16.898,22.152 C16.802,23.147 17.182,25.706 17.277,27.696 C17.371,29.685 17.324,31.486 17.277,32.292 C17.229,33.097 18.384,34.96 17.371,36.082 C16.045,37.551 14.812,36.413 15.098,34.471 C15.381,32.529 14.86,31.344 14.766,30.207 C14.671,29.069 14.813,19.167 14.813,19.167 L17.134,19.404 Z" fill="#F5BCA1"></path>
                <path d="M13.078,13.008 C13.078,13.008 14.966,12.947 16.324,14.879 C17.59,16.678 17.745,20.362 17.352,20.901 C16.96,21.44 15.373,21.583 14.954,21.537 C14.535,21.493 12.888,15.38 13.078,13.008 Z" fill="#943000"></path>
                <path d="M11.269,12.661 C12.812,12.661 14.477,12.857 14.966,14.277 C15.456,15.696 16.239,18.929 15.652,19.859 C15.065,20.789 14.722,25.441 14.82,26.909 C14.918,28.377 16.827,37.142 16.876,39.836 C16.926,42.528 16.876,43.067 16.876,43.067 C16.876,43.067 15.697,44.677 11.638,44.927 C6.056,45.27 3.754,42.945 3.266,41.819 C2.775,40.692 4.294,32.344 4.881,29.994 C5.47,27.643 5.444,23.286 5.542,21.327 C5.64,19.369 4.733,15.891 6.497,14.349 C8.672,12.446 9.727,12.661 11.269,12.661 Z" fill="#943000"></path>
                <g transform="translate(5.000000, 0.000000)">
                    <path d="M10.494,3.799 C10.494,3.799 10.867,5.537 10.882,7.439 C10.888,8.271 10.508,9.051 10.528,9.87 C10.549,10.625 11.071,11.743 11.111,12.26 C11.202,13.463 10.86,14.291 10.244,14.326 C9.811,14.349 9.035,13.08 8.101,12.923 C7.131,12.759 5.903,12.951 5.678,11.903 C5.237,9.846 7.786,3.358 7.786,3.358 L10.494,3.799 Z" fill="#C23F26"></path>
                    <path d="M7.613,9.472 C7.613,9.472 7.31,13.539 6.857,13.861 C6.405,14.182 4.214,13.753 4.214,12.358 C4.214,10.964 4.397,9.124 4.397,9.124 L7.613,9.472 Z" fill="#D8A78E"></path>
                    <path d="M10.214,3.54 C10.214,3.54 10.585,11.707 7.944,12.098 C5.961,12.392 3.381,10.752 3.296,8.058 C3.208,5.366 2.227,2.133 4.097,2.128 C5.967,2.123 10.43,1.723 10.214,3.54 Z" fill="#F6BDA2"></path>
                    <path d="M2.133,2.286 C1.816,2.817 1.316,4.498 1.155,5.551 C1.027,6.39 0.71,7.38 0.653,8.307 C0.597,9.24 0.8,10.109 0.791,10.909 C0.776,11.989 0.231,13.254 0.246,13.612 C0.271,14.272 1.085,13.342 1.979,13.561 C2.311,13.642 3.459,15.168 3.408,17.132 C3.392,17.742 5.07,17.383 5.193,17.26 C5.485,16.967 4.402,10.576 4.581,8.715 C4.761,6.853 4.734,4.124 4.734,4.124 C4.734,4.124 3.304,0.332 2.133,2.286 Z" fill="#C23F26"></path>
                    <path d="M6.72,0.574 C6.72,0.574 9.482,0.582 10.466,2.28 C11.376,3.851 10.919,5.634 10.234,5.519 C10.105,5.498 9.76,5.093 9.76,5.093 C9.76,5.093 9.069,5.292 8.817,5.169 C8.31,4.923 7.745,4.149 7.745,4.149 C7.745,4.149 7.601,4.942 7.057,5.118 C6.513,5.294 5.655,4.021 5.655,4.021 C5.655,4.021 5.593,4.933 5.323,5.908 C5.034,6.944 4.376,7.645 3.838,7.137 C2.793,6.153 1.053,4.474 2.207,1.986 C3.36,-0.499 6.72,0.574 6.72,0.574 Z" fill="#C23F26"></path>
                </g>
                <g transform="translate(3.000000, 13.000000)">
                    <path d="M0.827,7.042 C0.827,7.042 0.677,10.388 0.806,13.173 C0.879,14.783 1.043,16.645 1.095,17.055 C1.223,18.083 1.512,20.2 1.512,20.2 C1.512,20.2 1.468,21.254 1.383,21.644 C1.127,22.786 0.912,24.902 2.783,25.25 C4.373,25.548 3.912,23.016 3.34,21.058 C3.244,20.735 3.467,18.803 3.5,17.249 C3.542,15.427 3.381,14.999 3.436,12.982 C3.502,10.446 4.139,7.367 4.139,7.367 L0.827,7.042 Z" fill="#F5BCA1"></path>
                    <path d="M2.1,1.179 C2.842,0.254 4.619,-0.021 5.332,1.767 C6.044,3.554 5.009,9.191 4.255,9.503 C3.767,9.705 3.093,9.727 2.198,9.602 C1.106,9.448 0.725,8.568 0.484,8.182 C0.108,7.577 0.844,2.744 2.1,1.179 Z" fill="#943000"></path>
                </g>
            </g>
            <g transform="translate(52.000000, 143.000000)" id="Shape">
                <path d="M17.516,19.316 C17.516,19.316 17.439,24.481 17.171,25.476 C16.903,26.471 15.909,27.963 15.909,27.963 L15.793,19.698 L17.516,19.316 Z" fill="#F5BCA1"></path>
                <path d="M8.455,51.86 C14.269,51.217 20.065,52.92 21.399,55.658 C22.734,58.4 19.104,61.14 13.288,61.781 C7.475,62.424 1.679,60.723 0.344,57.983 C-0.99,55.241 2.641,52.502 8.455,51.86 Z" fill="#83C4C7"></path>
                <g transform="translate(10.000000, 33.000000)">
                    <path d="M3.658,21.829 C3.658,21.829 5.043,22.144 5.741,22.519 C6.148,22.738 6.009,23.316 5.968,23.677 C5.909,24.21 5.313,24.964 3.533,24.157 C1.695,23.324 0.974,23.06 0.903,22.527 C0.827,21.957 1.013,21.299 1.517,21.206 C2.161,21.086 3.658,21.829 3.658,21.829 Z" fill="#513B6F"></path>
                    <path d="M1.693,0.606 C1.693,0.606 1.895,5.192 2.473,9.61 C3.049,14.027 4.01,22.949 4.01,22.949 C4.01,22.949 4.303,23.709 5.317,23.246 C5.998,22.935 5.736,22.199 5.801,21.745 C5.93,20.864 6.244,14.937 6.006,13.949 C5.694,12.635 5.291,11.581 5.51,10.754 C5.729,9.927 5.638,0.893 5.638,0.893 L1.693,0.606 Z" fill="#F5BCA1"></path>
                </g>
                <g transform="translate(6.000000, 35.000000)">
                    <path d="M3.526,21.563 C3.526,21.563 4.91,21.878 5.608,22.253 C6.016,22.471 5.877,23.05 5.837,23.411 C5.777,23.944 5.18,24.698 3.401,23.891 C1.562,23.058 0.841,22.793 0.77,22.261 C0.694,21.691 0.881,21.033 1.385,20.94 C2.028,20.821 3.526,21.563 3.526,21.563 Z" fill="#513B6F"></path>
                    <path d="M1.562,0.341 C1.562,0.341 1.765,4.927 2.342,9.345 C2.919,13.762 3.88,22.684 3.88,22.684 C3.88,22.684 4.171,23.444 5.186,22.981 C5.866,22.67 5.604,21.933 5.67,21.48 C5.798,20.599 6.112,14.672 5.876,13.684 C5.563,12.37 5.159,11.316 5.378,10.489 C5.597,9.662 5.506,0.628 5.506,0.628 L1.562,0.341 Z" fill="#F5BCA1"></path>
                </g>
                <path d="M12.854,11.406 C14.396,11.376 16.617,12.521 17.134,13.931 C17.652,15.34 16.557,24.116 16.683,25.582 C16.809,27.048 18.727,35.238 18.829,37.93 C18.931,40.62 18.892,41.16 18.892,41.16 C18.892,41.16 17.907,43.329 13.854,43.659 C8.28,44.112 6.007,42.139 5.496,41.023 C4.983,39.906 6.265,31.223 6.806,28.861 C7.347,26.499 7.804,22.073 7.296,20.183 C6.79,18.289 6.382,14.765 8.114,13.189 C10.253,11.242 11.312,11.437 12.854,11.406 Z" fill="#E06A92"></path>
                <g transform="translate(4.000000, 13.000000)">
                    <path d="M6.685,7.311 C6.685,7.311 6.166,10.621 5.487,13.325 C5.094,14.888 4.565,16.68 4.433,17.073 C4.103,18.054 3.399,20.072 3.399,20.072 C3.399,20.072 3.232,21.114 3.238,21.512 C3.263,22.682 3.052,24.799 1.149,24.768 C-0.468,24.744 0.487,22.354 1.437,20.549 C1.594,20.251 1.76,18.313 2.036,16.783 C2.358,14.989 2.6,14.601 2.947,12.614 C3.386,10.116 3.374,6.971 3.374,6.971 L6.685,7.311 Z" fill="#F5BCA1"></path>
                    <path d="M6.601,1.312 C6.058,0.258 4.372,-0.364 3.318,1.246 C2.264,2.857 2.16,8.586 2.838,9.042 C3.275,9.338 3.931,9.493 4.833,9.548 C5.935,9.614 6.61,9.021 6.922,8.691 C7.409,8.171 7.521,3.096 6.601,1.312 Z" fill="#5F90C2"></path>
                </g>
                <path d="M14.85,12.124 C14.85,12.124 17.273,12.582 17.605,14.215 C17.937,15.848 17.784,19.164 17.708,19.469 C17.631,19.776 17.12,20.03 16.56,20.056 C16,20.082 14.85,12.124 14.85,12.124 Z" fill="#5F90C2"></path>
                <path d="M7.656,5.084 C7.656,5.084 7.192,9.88 8.983,10.288 C11.227,10.798 12.758,9.471 12.758,9.471 C12.758,9.471 13.778,3.758 11.635,3.146 C9.493,2.533 7.963,3.452 7.656,5.084 Z" fill="#F6BDA2"></path>
                <path d="M8.473,1.514 C8.473,1.514 7.249,2.636 7.249,4.472 C7.249,6.308 8.167,6.716 9.085,6.615 C10.004,6.513 9.596,8.145 9.596,8.758 C9.596,9.14 8.655,9.878 8.104,11.321 C7.773,12.186 7.682,12.921 7.657,13.298 C7.588,14.363 8.129,12.864 9.252,13.579 C10.374,14.293 10.616,18.299 10.922,19.318 C11.229,20.338 11.026,21.053 12.76,20.542 C14.494,20.032 14.188,20.338 14.902,20.44 C15.617,20.542 17.147,21.052 17.045,19.419 C16.943,17.787 16.739,12.685 16.739,11.257 C16.739,9.829 19.086,2.737 15.821,1.105 C12.983,-0.312 9.493,-0.425 8.473,1.514 Z" fill="#FF9019"></path>
            </g>
            <g transform="translate(236.000000, 13.000000)" id="Shape">
                <path d="M4.388,20.133 C4.388,20.133 4.464,25.298 4.733,26.293 C5.001,27.288 5.995,28.78 5.995,28.78 L6.11,20.515 L4.388,20.133 Z" fill="#F5BCA1"></path>
                <path d="M7.053,12.941 C7.053,12.941 4.629,13.399 4.298,15.032 C3.967,16.665 4.12,19.981 4.196,20.287 C4.272,20.593 4.782,20.848 5.343,20.873 C5.904,20.899 7.053,12.941 7.053,12.941 Z" fill="#BC7B5F"></path>
                <path d="M13.294,53.009 C7.48,52.366 1.683,54.069 0.349,56.807 C-0.985,59.549 2.645,62.29 8.46,62.93 C14.273,63.573 20.071,61.872 21.405,59.132 C22.739,56.39 19.108,53.651 13.294,53.009 Z" fill="#83C4C7"></path>
                <g transform="translate(5.000000, 34.000000)">
                    <path d="M3.244,21.646 C3.244,21.646 1.86,21.961 1.162,22.336 C0.753,22.555 0.892,23.133 0.933,23.494 C0.993,24.027 1.589,24.782 3.369,23.974 C5.206,23.141 5.928,22.877 5.999,22.344 C6.075,21.774 5.889,21.116 5.384,21.023 C4.741,20.903 3.244,21.646 3.244,21.646 Z" fill="#E06841"></path>
                    <path d="M5.208,0.424 C5.208,0.424 5.007,5.01 4.43,9.428 C3.853,13.845 2.891,22.767 2.891,22.767 C2.891,22.767 2.598,23.527 1.586,23.064 C0.904,22.753 1.167,22.017 1.1,21.563 C0.972,20.682 0.659,14.755 0.895,13.766 C1.207,12.452 1.612,11.398 1.392,10.571 C1.173,9.744 1.264,0.71 1.264,0.71 L5.208,0.424 Z" fill="#F5BCA1"></path>
                </g>
                <g transform="translate(9.000000, 36.000000)">
                    <path d="M3.375,21.38 C3.375,21.38 1.992,21.695 1.294,22.07 C0.886,22.289 1.025,22.867 1.065,23.228 C1.125,23.762 1.721,24.515 3.501,23.708 C5.339,22.875 6.06,22.611 6.132,22.078 C6.208,21.508 6.021,20.85 5.517,20.757 C4.873,20.638 3.375,21.38 3.375,21.38 Z" fill="#E06841"></path>
                    <path d="M5.34,0.158 C5.34,0.158 5.139,4.745 4.562,9.162 C3.984,13.579 3.024,22.501 3.024,22.501 C3.024,22.501 2.731,23.261 1.718,22.797 C1.037,22.486 1.299,21.75 1.232,21.296 C1.105,20.415 0.792,14.488 1.027,13.5 C1.34,12.186 1.745,11.132 1.524,10.305 C1.305,9.478 1.396,0.444 1.396,0.444 L5.34,0.158 Z" fill="#F5BCA1"></path>
                </g>
                <path d="M9.048,12.223 C7.507,12.193 5.286,13.338 4.769,14.748 C4.25,16.157 5.347,24.933 5.22,26.399 C5.093,27.865 3.176,36.055 3.074,38.747 C2.97,41.438 3.01,41.977 3.01,41.977 C3.01,41.977 3.994,44.146 8.048,44.476 C13.621,44.929 15.896,42.956 16.406,41.839 C16.918,40.722 15.636,32.039 15.097,29.677 C14.555,27.316 14.099,22.889 14.605,20.999 C15.113,19.105 15.519,15.581 13.787,14.005 C11.648,12.059 10.591,12.253 9.048,12.223 Z" fill="#4CBA8E"></path>
                <g transform="translate(10.000000, 14.000000)">
                    <path d="M1.217,7.128 C1.217,7.128 1.736,10.438 2.415,13.142 C2.809,14.705 3.339,16.497 3.47,16.89 C3.799,17.872 4.504,19.889 4.504,19.889 C4.504,19.889 4.67,20.931 4.664,21.329 C4.641,22.499 4.851,24.616 6.754,24.585 C8.37,24.561 7.415,22.172 6.466,20.366 C6.308,20.068 6.142,18.13 5.866,16.6 C5.546,14.806 5.303,14.418 4.956,12.431 C4.517,9.933 4.528,6.788 4.528,6.788 L1.217,7.128 Z" fill="#F5BCA1"></path>
                    <path d="M1.301,1.128 C1.845,0.075 3.53,-0.548 4.585,1.062 C5.639,2.672 5.744,8.401 5.066,8.857 C4.628,9.153 3.972,9.308 3.07,9.363 C1.969,9.429 1.292,8.836 0.98,8.505 C0.492,7.988 0.382,2.913 1.301,1.128 Z" fill="#BC7B5F"></path>
                </g>
                <path d="M14.246,5.901 C14.246,5.901 14.71,10.697 12.92,11.105 C10.675,11.614 9.145,10.288 9.145,10.288 C9.145,10.288 8.124,4.575 10.267,3.963 C12.41,3.351 13.939,4.269 14.246,5.901 Z" fill="#F6BDA2"></path>
                <path d="M13.429,2.331 C13.429,2.331 14.654,3.453 14.654,5.289 C14.654,7.125 13.736,7.533 12.817,7.432 C11.899,7.33 12.308,8.962 12.308,9.575 C12.308,9.957 13.249,10.695 13.799,12.138 C14.13,13.003 14.22,13.738 14.246,14.116 C14.316,15.18 13.773,13.681 12.651,14.396 C11.529,15.11 11.131,16.428 9.397,15.917 C7.663,15.406 7.968,15.713 7.254,15.815 C6.54,15.917 5.01,16.427 5.111,14.794 C5.214,13.162 5.164,13.503 5.164,12.075 C5.164,10.647 2.816,3.555 6.082,1.924 C8.918,0.505 12.409,0.392 13.429,2.331 Z" fill="#2E5980"></path>
            </g>
            <g transform="translate(175.000000, 181.000000)" id="Shape">
                <path d="M1.182,18.667 C1.182,18.667 1.32,22.659 1.736,25.959 C1.975,27.864 2.344,30.063 2.444,30.546 C2.693,31.754 3.234,34.245 3.234,34.245 C3.234,34.245 3.285,35.501 3.218,35.973 C3.022,37.354 2.533,39.656 4.79,39.895 C6.707,40.099 6.353,37.367 5.49,35.092 C5.346,34.718 5.427,32.399 5.321,30.549 C5.2,28.379 4.968,27.885 4.843,25.482 C4.682,22.462 4.573,18.375 4.573,18.375 L1.182,18.667 Z" fill="#F5BCA1"></path>
                <path d="M14.565,52.865 C8.752,52.222 2.955,53.925 1.621,56.663 C0.287,59.405 3.917,62.146 9.732,62.786 C15.545,63.429 21.342,61.728 22.677,58.987 C24.012,56.247 20.381,53.507 14.565,52.865 Z" fill="#83C4C7"></path>
                <path d="M14.621,56.938 C14.142,57.292 10.895,58.1 11.215,59.919 C11.534,61.737 17.907,59.702 17.761,57.645 C17.655,56.129 15.101,56.584 14.621,56.938 Z" fill="#434357"></path>
                <path d="M8.021,54.31 C7.542,54.664 4.294,55.472 4.615,57.291 C4.933,59.109 11.306,57.073 11.161,55.017 C11.055,53.501 8.5,53.956 8.021,54.31 Z" fill="#434357"></path>
                <path d="M2.861,34.249 C2.861,34.249 4.3,55.946 4.936,56.836 C5.597,57.76 7.026,57.515 7.652,56.987 C8.276,56.46 8.902,34.408 8.902,34.408 L2.861,34.249 Z" fill="#4F73B1"></path>
                <path d="M8.902,34.408 C8.902,34.408 10.656,58.562 11.643,59.261 C12.631,59.961 13.63,59.842 14.359,59.413 C15.086,58.984 15.393,34.58 15.393,34.58 L8.902,34.408 Z" fill="#4F73B1"></path>
                <path d="M11.133,12.18 C11.133,12.18 14.807,12.792 15.88,16.363 C16.996,20.068 16.091,34.157 16.091,34.687 C16.091,35.218 14.221,37.57 8.506,37.264 C3.063,36.974 2.321,35.427 2.321,34.483 C2.321,33.716 3.064,31.387 2.664,28.198 C2.053,23.301 1.521,16.879 2.155,14.935 C3.194,11.752 8.819,11.498 11.133,12.18 Z" fill="#9E43A2"></path>
                <path d="M10.81,9.508 C10.81,9.508 11.083,12.366 10.572,12.639 C9.042,13.455 7.27,12.515 7.27,12.515 L7,9.017 L10.81,9.508 Z" fill="#D8A78E"></path>
                <path d="M6.236,12.667 C6.236,12.667 3.034,12.452 2.204,14.589 C1.373,16.725 0.013,20.437 1.042,20.772 C2.069,21.105 2.991,21.427 3.428,21.38 C3.864,21.334 6.434,15.139 6.236,12.667 Z" fill="#9E43A2"></path>
                <path d="M12.529,3.029 C12.529,3.029 14.714,10.747 12,11.364 C9.964,11.827 6.389,10.94 6.083,8.15 C5.778,5.359 4.119,2.204 6.062,2.05 C8.004,1.896 12.607,1.125 12.529,3.029 Z" fill="#F6BDA2"></path>
                <path d="M12.545,19.75 C12.545,19.75 12.815,23.736 13.337,27.02 C13.64,28.916 14.081,31.103 14.195,31.582 C14.483,32.782 15.108,35.253 15.108,35.253 C15.108,35.253 15.198,36.507 15.147,36.981 C14.995,38.368 14.584,40.684 16.846,40.849 C18.77,40.99 18.325,38.271 17.389,36.026 C17.233,35.657 17.239,33.337 17.073,31.491 C16.879,29.326 16.633,28.84 16.429,26.442 C16.17,23.429 15.927,19.347 15.927,19.347 L12.545,19.75 Z" fill="#F5BCA1"></path>
                <path d="M15.336,14.829 C14.563,13.866 12.007,13.375 11.263,15.238 C10.521,17.1 11.25,23.32 12.036,23.646 C12.545,23.857 13.802,24.02 14.733,23.889 C15.873,23.728 16.283,23.046 16.533,22.644 C16.924,22.014 16.645,16.459 15.336,14.829 Z" fill="#9E43A2"></path>
                <path d="M13.276,3.967 C13.276,3.967 12.562,5.038 11.95,5.497 C11.338,5.956 11.745,7.282 11.694,7.691 C11.643,8.099 9.806,8.2 9.806,9.067 C9.806,9.935 11.032,11.465 8.48,11.67 C7.387,11.757 5.21,11.146 5.012,9.782 C4.813,8.419 3.647,7.361 3.533,5.65 C3.276,1.875 5.624,0.192 7.817,0.038 C10.011,-0.114 14.398,1.059 13.276,3.967 Z" fill="#D08D00"></path>
                <path d="M11.032,7.477 C11.032,7.477 10.342,6.044 9.505,6.741 C8.668,7.438 9.572,9.835 10.626,9.329 C11.68,8.821 11.032,7.477 11.032,7.477 Z" fill="#F6BDA2"></path>
            </g>
            <g transform="translate(85.000000, 62.000000)" id="Shape">
                <path d="M1.354,18.728 C1.354,18.728 1.494,22.72 1.908,26.02 C2.149,27.925 2.516,30.124 2.617,30.607 C2.866,31.815 3.408,34.306 3.408,34.306 C3.408,34.306 3.458,35.562 3.392,36.034 C3.195,37.415 2.706,39.717 4.962,39.956 C6.88,40.16 6.526,37.428 5.663,35.153 C5.519,34.778 5.6,32.46 5.495,30.61 C5.373,28.44 5.141,27.946 5.016,25.543 C4.856,22.523 4.746,18.436 4.746,18.436 L1.354,18.728 Z" fill="#F5BCA1"></path>
                <path d="M14.739,52.926 C8.925,52.283 3.128,53.986 1.794,56.724 C0.46,59.466 4.09,62.206 9.905,62.847 C15.718,63.49 21.516,61.789 22.85,59.049 C24.185,56.307 20.554,53.568 14.739,52.926 Z" fill="#83C4C7"></path>
                <path d="M14.794,56.998 C14.315,57.352 11.068,58.16 11.388,59.979 C11.707,61.797 18.079,59.762 17.934,57.705 C17.829,56.189 15.273,56.645 14.794,56.998 Z" fill="#434357"></path>
                <path d="M8.193,54.371 C7.714,54.725 4.465,55.533 4.786,57.352 C5.106,59.17 11.478,57.134 11.334,55.078 C11.228,53.561 8.672,54.016 8.193,54.371 Z" fill="#434357"></path>
                <path d="M3.034,34.31 C3.034,34.31 4.473,56.007 5.11,56.897 C5.77,57.821 7.199,57.576 7.825,57.048 C8.448,56.52 9.075,34.469 9.075,34.469 L3.034,34.31 Z" fill="#4F73B1"></path>
                <path d="M9.075,34.469 C9.075,34.469 10.829,58.623 11.816,59.322 C12.804,60.022 13.803,59.903 14.532,59.474 C15.259,59.045 15.566,34.641 15.566,34.641 L9.075,34.469 Z" fill="#4F73B1"></path>
                <path d="M11.307,12.24 C11.307,12.24 14.98,12.852 16.053,16.423 C17.168,20.128 16.264,34.217 16.264,34.747 C16.264,35.279 14.394,37.629 8.679,37.324 C3.237,37.033 2.495,35.487 2.495,34.543 C2.495,33.776 3.237,31.447 2.838,28.257 C2.226,23.36 1.694,16.938 2.329,14.994 C3.367,11.813 8.991,11.558 11.307,12.24 Z" fill="#FFEDCE"></path>
                <path d="M10.982,9.568 C10.982,9.568 11.256,12.426 10.745,12.699 C9.214,13.515 7.442,12.575 7.442,12.575 L7.172,9.077 L10.982,9.568 Z" fill="#D8A78E"></path>
                <path d="M6.409,12.728 C6.409,12.728 3.207,12.513 2.376,14.65 C1.545,16.787 0.187,20.499 1.214,20.834 C2.243,21.167 3.164,21.489 3.601,21.442 C4.038,21.395 6.606,15.199 6.409,12.728 Z" fill="#FFEDCE"></path>
                <path d="M12.701,3.089 C12.701,3.089 14.888,10.807 12.174,11.424 C10.138,11.887 6.562,11 6.257,8.21 C5.951,5.419 4.292,2.264 6.235,2.11 C8.176,1.958 12.78,1.186 12.701,3.089 Z" fill="#F6BDA2"></path>
                <path d="M12.719,19.81 C12.719,19.81 12.988,23.796 13.51,27.081 C13.813,28.977 14.253,31.164 14.368,31.643 C14.656,32.843 15.28,35.314 15.28,35.314 C15.28,35.314 15.37,36.568 15.32,37.042 C15.169,38.429 14.757,40.746 17.018,40.911 C18.942,41.052 18.498,38.333 17.561,36.088 C17.406,35.719 17.413,33.399 17.246,31.552 C17.053,29.387 16.805,28.902 16.601,26.504 C16.343,23.491 16.101,19.409 16.101,19.409 L12.719,19.81 Z" fill="#F5BCA1"></path>
                <path d="M15.509,14.89 C14.736,13.926 12.179,13.436 11.436,15.299 C10.694,17.161 11.424,23.382 12.21,23.707 C12.717,23.918 13.974,24.081 14.906,23.95 C16.046,23.79 16.456,23.107 16.706,22.705 C17.097,22.075 16.816,16.52 15.509,14.89 Z" fill="#FFEDCE"></path>
                <path d="M13.449,4.027 C13.449,4.027 12.735,5.098 12.123,5.558 C11.511,6.017 11.919,7.343 11.867,7.751 C11.816,8.159 9.979,8.26 9.979,9.127 C9.979,9.995 11.205,11.525 8.653,11.73 C7.56,11.817 5.382,11.206 5.184,9.843 C4.986,8.48 3.82,7.421 3.705,5.711 C3.449,1.937 5.796,0.253 7.99,0.099 C10.185,-0.054 14.572,1.12 13.449,4.027 Z" fill="#9A4605"></path>
                <path d="M11.205,7.538 C11.205,7.538 10.516,6.105 9.678,6.802 C8.841,7.498 9.745,9.897 10.8,9.39 C11.853,8.881 11.205,7.538 11.205,7.538 Z" fill="#F6BDA2"></path>
            </g>
            <g transform="translate(178.000000, 41.000000)" id="Shape">
                <path d="M15.427,54.581 C9.613,53.939 3.817,55.641 2.482,58.38 C1.148,61.122 4.778,63.863 10.593,64.503 C16.406,65.147 22.204,63.446 23.538,60.705 C24.872,57.962 21.241,55.223 15.427,54.581 Z" fill="#83C4C7"></path>
                <g transform="translate(7.000000, 34.000000)">
                    <path d="M3.621,22.786 C3.621,22.786 2.606,23.781 2.019,24.24 C1.433,24.699 0.75,25.267 0.981,25.752 C1.21,26.237 1.879,26.708 3.582,25.752 C5.341,24.764 5.795,24.19 5.82,23.655 C5.848,23.08 5.591,22.557 5.591,22.557 L3.621,22.786 Z" fill="#8A5609"></path>
                    <path d="M2.147,0.366 C2.147,0.366 2.147,4.957 2.529,9.395 C2.912,13.833 3.524,23.245 3.524,23.245 C3.524,23.245 3.626,23.884 4.698,23.578 C5.768,23.272 5.615,22.252 5.615,21.793 C5.615,21.334 6.063,14.883 5.872,13.885 C5.615,12.558 5.259,11.487 5.514,10.672 C5.769,9.856 6.076,0.826 6.076,0.826 L2.147,0.366 Z" fill="#F5BCA1"></path>
                </g>
                <g transform="translate(12.000000, 35.000000)">
                    <path d="M3.262,22.958 C3.262,22.958 2.249,23.953 1.662,24.413 C1.075,24.872 0.392,25.44 0.622,25.924 C0.851,26.409 1.52,26.881 3.224,25.924 C4.984,24.937 5.437,24.363 5.462,23.827 C5.489,23.252 5.233,22.73 5.233,22.73 L3.262,22.958 Z" fill="#8A5609"></path>
                    <path d="M1.789,0.538 C1.789,0.538 1.789,5.129 2.171,9.568 C2.554,14.006 3.166,23.418 3.166,23.418 C3.166,23.418 3.269,24.057 4.341,23.751 C5.412,23.445 5.259,22.425 5.259,21.966 C5.259,21.507 5.706,15.056 5.514,14.059 C5.259,12.732 4.902,11.661 5.156,10.845 C5.413,10.028 5.719,0.999 5.719,0.999 L1.789,0.538 Z" fill="#F5BCA1"></path>
                </g>
                <path d="M10.739,13.476 C10.739,13.476 8.85,13.415 7.493,15.347 C6.226,17.146 6.072,20.83 6.464,21.369 C6.856,21.908 8.444,22.05 8.862,22.005 C9.281,21.961 10.929,15.848 10.739,13.476 Z" fill="#E3302A"></path>
                <path d="M12.548,13.128 C11.005,13.128 9.34,13.324 8.851,14.744 C8.361,16.163 7.579,19.396 8.166,20.326 C8.753,21.256 9.095,25.908 8.998,27.376 C8.9,28.845 6.99,37.609 6.941,40.302 C6.892,42.994 6.941,43.534 6.941,43.534 C6.941,43.534 8.12,45.144 12.179,45.394 C17.761,45.737 20.063,43.412 20.552,42.285 C21.042,41.158 19.524,32.81 18.937,30.46 C18.348,28.109 18.374,23.752 18.275,21.794 C18.177,19.836 19.084,16.358 17.32,14.816 C15.145,12.913 14.09,13.128 12.548,13.128 Z" fill="#E3302A"></path>
                <g transform="translate(7.000000, 0.000000)">
                    <path d="M1.324,4.267 C1.324,4.267 1.36,6.375 1.288,9.068 C1.22,11.576 0.798,12.741 1.679,12.79 C2.561,12.838 4.408,13.264 4.85,11.207 C5.672,7.373 3.649,2.217 4.03,3.826 L1.324,4.267 Z" fill="#393E4B"></path>
                    <path d="M4.203,9.939 C4.203,9.939 4.507,14.006 4.96,14.329 C5.412,14.65 7.602,14.221 7.602,12.826 C7.602,11.431 7.42,9.592 7.42,9.592 L4.203,9.939 Z" fill="#D8A78E"></path>
                    <path d="M1.604,4.008 C1.604,4.008 1.232,12.175 3.873,12.566 C5.857,12.86 8.436,11.22 8.521,8.526 C8.609,5.834 9.59,2.601 7.721,2.596 C5.85,2.592 1.387,2.191 1.604,4.008 Z" fill="#F6BDA2"></path>
                    <path d="M9.958,3.536 C11.129,5.491 10.638,9.71 10.591,10.929 C10.543,12.149 8.045,13.602 7.566,13.122 C7.086,12.641 7.864,4.564 7.864,4.564 C7.864,4.564 8.788,1.581 9.958,3.536 Z" fill="#393E4B"></path>
                    <path d="M5.097,1.041 C5.097,1.041 2.335,1.05 1.352,2.748 C0.442,4.318 0.895,5.889 1.583,5.986 C2.354,6.095 6.867,7.09 7.912,6.105 C8.957,5.121 10.766,4.942 9.611,2.455 C8.457,-0.031 5.097,1.041 5.097,1.041 Z" fill="#393E4B"></path>
                </g>
                <polygon fill="#B3F1EF" points="13.075 23.569 0.947 16.542 0.947 29.284 13.075 36.292"></polygon>
                <path d="M1.142,23.017 C1.142,23.017 2.672,23.361 3.169,24.165 C3.667,24.968 2.672,26.154 2.022,26.192 C1.372,26.231 0.415,25.81 0.376,25.083 C0.337,24.356 0.491,22.901 1.142,23.017 Z" fill="#F5BCA1"></path>
                <g transform="translate(9.000000, 14.000000)">
                    <path d="M11.605,8.509 C11.605,8.509 12.34,12.813 12.041,13.404 C11.739,13.995 9.687,15.369 8.054,15.958 C6.422,16.547 5.142,16.678 4.508,16.935 C3.874,17.192 3.025,17.585 2.149,17.005 C1.275,16.425 0.426,14.824 1.394,14.234 C2.361,13.645 3.312,13.923 3.949,14.28 C4.587,14.637 4.968,14.486 5.478,14.347 C5.972,14.215 7.328,12.829 8.972,12.088 L8.169,9.261 L11.605,8.509 Z" fill="#F5BCA1"></path>
                    <path d="M9.751,1.328 C8.95,0.454 7.16,0.295 6.564,2.126 C5.97,3.957 7.372,9.512 8.146,9.775 C8.646,9.945 9.318,9.923 10.205,9.739 C11.284,9.513 11.607,8.61 11.821,8.209 C12.156,7.581 11.105,2.806 9.751,1.328 Z" fill="#E3302A"></path>
                </g>
            </g>
            <g transform="translate(219.000000, 127.000000)" id="Shape">
                <path d="M4.604,28.454 C4.604,28.454 4.094,24.492 3.973,21.169 C3.901,19.25 3.91,17.02 3.93,16.527 C3.982,15.294 4.115,12.749 4.115,12.749 C4.115,12.749 3.96,11.501 3.82,11.046 C3.401,9.714 2.937,7.221 5.127,6.621 C6.987,6.11 6.689,9.164 6.204,11.548 C6.123,11.942 6.577,14.216 6.771,16.059 C7,18.221 6.853,18.746 7.118,21.137 C7.447,24.143 8.51,27.74 8.51,27.74 L4.604,28.454 Z" fill="#F5BCA1"></path>
                <path d="M8.024,23.22 C8.024,23.22 7.112,24.568 5.846,24.656 C4.58,24.744 4.102,23.48 3.758,24.013 C3.508,24.403 3.797,31.641 5.327,32.33 C6.857,33.019 8.5,31.171 8.5,31.171 L9.137,28.805 C9.138,28.805 8.254,23.533 8.024,23.22 Z" fill="#18A24D"></path>
                <path d="M13.658,72.442 C7.844,71.8 2.047,73.501 0.713,76.241 C-0.622,78.982 3.009,81.724 8.824,82.364 C14.637,83.008 20.434,81.307 21.768,78.566 C23.104,75.824 19.473,73.084 13.658,72.442 Z" fill="#83C4C7"></path>
                <path d="M13.701,76.269 C13.222,76.622 9.973,77.43 10.293,79.249 C10.612,81.068 16.985,79.033 16.841,76.975 C16.734,75.46 14.179,75.915 13.701,76.269 Z" fill="#D05E43"></path>
                <path d="M7.1,73.64 C6.622,73.994 3.373,74.802 3.693,76.621 C4.013,78.44 10.386,76.403 10.242,74.347 C10.135,72.831 7.579,73.287 7.1,73.64 Z" fill="#D05E43"></path>
                <path d="M5.396,51.761 C5.396,51.761 6.485,73.876 7.471,74.347 C8.458,74.819 10.186,74.499 10.186,74.499 L11.437,51.92 L5.396,51.761 Z" fill="#674B3F"></path>
                <path d="M11.438,51.92 C11.438,51.92 13.192,76.074 14.179,76.773 C15.167,77.473 16.895,76.925 16.895,76.925 L17.929,52.092 L11.438,51.92 Z" fill="#674B3F"></path>
                <path d="M13.043,29.464 C13.043,29.464 18.255,30.009 18.415,33.874 C18.575,37.74 18.626,51.668 18.626,52.198 C18.626,52.729 16.756,55.081 11.041,54.775 C5.599,54.484 4.857,52.938 4.857,51.994 C4.857,50.833 5.245,45.132 5.396,39.972 C5.501,36.376 4.675,32.693 4.979,31.352 C5.438,29.324 10.729,28.782 13.043,29.464 Z" fill="#18A24D"></path>
                <path d="M9.804,27.02 C9.804,27.02 9.809,31.257 10.282,31.593 C10.754,31.928 13.345,31.48 13.345,30.027 C13.345,28.574 13.313,26.645 13.313,26.645 L9.804,27.02 Z" fill="#D8A78E"></path>
                <path d="M7.095,20.84 C7.095,20.84 6.707,29.348 9.46,29.756 C11.526,30.062 14.345,29.118 14.434,26.313 C14.525,23.508 15.417,19.375 13.469,19.369 C11.521,19.364 6.87,18.947 7.095,20.84 Z" fill="#F6BDA2"></path>
                <path d="M15.8,20.348 C15.8,20.348 15.957,23.192 15.908,24.462 C15.858,25.733 14.4,27.079 13.9,26.579 C13.401,26.079 13.617,21.42 13.617,21.42 L15.8,20.348 Z" fill="#7E5C4A"></path>
                <path d="M10.736,17.749 C10.736,17.749 7.858,17.758 6.832,19.527 C5.884,21.163 6.36,23.022 7.074,22.901 C7.344,22.856 7.759,22.729 8.286,22.473 C8.813,22.217 9.815,21.517 9.815,21.517 C9.815,21.517 9.663,22.014 9.472,22.779 C10.428,22.588 11.691,21.593 11.958,21.019 C12.039,20.846 12.65,25.614 13.739,24.588 C14.828,23.563 16.639,21.814 15.438,19.222 C14.236,16.632 10.736,17.749 10.736,17.749 Z" fill="#7E5C4A"></path>
                <path d="M13.514,24.91 C13.514,24.91 14.092,23.43 14.98,24.06 C15.868,24.69 15.149,27.15 14.06,26.726 C12.971,26.3 13.514,24.91 13.514,24.91 Z" fill="#F6BDA2"></path>
                <polygon fill="#B3F1EF" points="17.091 7.036 4.962 0.009 4.962 12.75 17.091 19.759"></polygon>
                <path d="M3.607,9.371 C3.607,9.371 4.799,7.172 5.988,7.427 C7.177,7.681 6.855,10.335 6.301,10.947 C5.748,11.559 4.412,12.276 4.115,12.324 C3.819,12.373 3.302,9.938 3.607,9.371 Z" fill="#F5BCA1"></path>
                <path d="M16.886,25.672 C15.993,25.298 16.117,24.912 15.828,25.367 C15.538,25.822 15.203,28.272 14.755,29.937 C14.309,31.604 13.942,35.429 16.276,35.448 C18.609,35.467 19.331,33.56 19.455,31.882 C19.578,30.203 20.295,25.895 19.848,25.708 C19.399,25.521 17.778,26.045 16.886,25.672 Z" fill="#18A24D"></path>
                <path d="M16.146,16.292 C16.146,16.292 16.189,20.934 16.34,21.748 C16.493,22.561 15.79,25.587 16.029,26.706 C16.267,27.823 19.217,27.967 19.605,26.938 C19.992,25.909 19.616,23.081 19.425,21.299 C19.236,19.517 18.689,16.549 18.241,15.281 C18.001,14.597 18.454,11.346 16.032,10.885 C14.727,10.637 13.958,11.031 14.194,12.607 C14.433,14.184 15.825,16.146 16.146,16.292 Z" fill="#F5BCA1"></path>
            </g>
            <g transform="translate(0.000000, 45.000000)" id="Shape">
                <path d="M8.724,55.36 C14.538,54.718 20.335,56.42 21.669,59.158 C23.003,61.9 19.374,64.641 13.559,65.281 C7.746,65.924 1.948,64.224 0.614,61.483 C-0.722,58.742 2.909,56.002 8.724,55.36 Z" fill="#83C4C7"></path>
                <g transform="translate(11.000000, 35.000000)">
                    <path d="M2.53,22.565 C2.53,22.565 3.545,23.56 4.132,24.019 C4.717,24.478 5.4,25.046 5.171,25.53 C4.942,26.015 4.273,26.487 2.569,25.53 C0.809,24.542 0.355,23.968 0.331,23.433 C0.303,22.858 0.56,22.335 0.56,22.335 L2.53,22.565 Z" fill="#F8C988"></path>
                    <path d="M4.003,0.145 C4.003,0.145 4.003,4.736 3.621,9.175 C3.238,13.613 2.626,23.025 2.626,23.025 C2.626,23.025 2.524,23.663 1.452,23.357 C0.382,23.051 0.534,22.031 0.534,21.572 C0.534,21.113 0.088,14.662 0.279,13.665 C0.534,12.337 0.891,11.266 0.636,10.451 C0.381,9.635 0.074,0.605 0.074,0.605 L4.003,0.145 Z" fill="#653E32"></path>
                </g>
                <g transform="translate(6.000000, 36.000000)">
                    <path d="M2.889,22.738 C2.889,22.738 3.902,23.733 4.49,24.192 C5.077,24.651 5.759,25.219 5.529,25.703 C5.3,26.188 4.631,26.66 2.927,25.703 C1.168,24.715 0.714,24.141 0.689,23.606 C0.663,23.031 0.918,22.509 0.918,22.509 L2.889,22.738 Z" fill="#F8C988"></path>
                    <path d="M4.361,0.317 C4.361,0.317 4.361,4.908 3.978,9.347 C3.596,13.785 2.984,23.197 2.984,23.197 C2.984,23.197 2.881,23.835 1.81,23.529 C0.74,23.223 0.892,22.203 0.892,21.744 C0.892,21.286 0.445,14.835 0.637,13.837 C0.892,12.51 1.249,11.439 0.993,10.623 C0.739,9.807 0.432,0.778 0.432,0.778 L4.361,0.317 Z" fill="#653E32"></path>
                </g>
                <path d="M13.411,14.255 C13.411,14.255 15.3,14.194 16.658,16.126 C17.925,17.926 18.078,21.609 17.686,22.148 C17.294,22.687 15.707,22.83 15.288,22.784 C14.87,22.74 13.223,16.627 13.411,14.255 Z" fill="#51689F"></path>
                <path d="M11.604,13.908 C13.146,13.908 14.811,14.104 15.3,15.524 C15.79,16.943 16.573,20.175 15.986,21.106 C15.399,22.036 15.056,26.689 15.154,28.157 C15.252,29.626 16.094,34.481 16.143,37.175 C16.192,39.867 15.684,41.511 15.684,41.511 C15.684,41.511 15.276,42.888 11.144,42.888 C5.551,42.888 5.307,41.311 4.818,40.184 C4.328,39.058 4.627,33.592 5.214,31.241 C5.801,28.89 5.777,24.534 5.875,22.575 C5.973,20.617 5.067,17.14 6.83,15.597 C9.007,13.693 10.061,13.908 11.604,13.908 Z" fill="#51689F"></path>
                <g transform="translate(4.000000, 0.000000)">
                    <path d="M8.947,10.719 C8.947,10.719 8.644,14.786 8.191,15.108 C7.738,15.43 5.549,15 5.549,13.605 C5.549,12.211 5.731,10.371 5.731,10.371 L8.947,10.719 Z" fill="#D8A78E"></path>
                    <path d="M11.548,4.787 C11.548,4.787 11.919,12.954 9.278,13.345 C7.295,13.639 4.715,11.999 4.629,9.306 C4.542,6.614 3.561,3.38 5.431,3.376 C7.301,3.372 11.764,2.97 11.548,4.787 Z" fill="#F6BDA2"></path>
                    <path d="M8.054,1.821 C8.054,1.821 10.816,1.829 11.8,3.527 C12.71,5.098 12.256,6.668 11.568,6.766 C10.797,6.875 6.285,7.87 5.24,6.885 C4.195,5.901 2.386,5.722 3.541,3.235 C4.694,0.749 8.054,1.821 8.054,1.821 Z" fill="#D5494B"></path>
                    <path d="M5.332,2.23 C5.332,2.23 4.299,-1.175 1.659,0.432 C-0.801,1.929 0.594,3.945 1.62,4.679 C2.96,5.635 4.184,5.253 4.604,4.985 C5.026,4.717 5.332,2.23 5.332,2.23 Z" fill="#D5494B"></path>
                    <path d="M3.189,4.832 C3.189,4.832 2.768,8.007 3.762,9.232 C4.757,10.457 5.828,9.423 5.79,8.888 C5.752,8.353 5.79,7.319 5.676,6.248 C5.562,5.176 3.343,4.143 3.189,4.832 Z" fill="#D5494B"></path>
                    <path d="M5.83,8.924 C5.83,8.924 4.461,7.278 4.147,8.437 C3.833,9.596 4.764,10.528 5.356,10.365 C5.945,10.202 5.83,8.924 5.83,8.924 Z" fill="#F6BDA2"></path>
                </g>
                <polygon fill="#B3F1EF" points="11.075 24.349 23.204 17.321 23.204 30.063 11.075 37.072"></polygon>
                <path d="M23.009,23.796 C23.009,23.796 21.479,24.14 20.982,24.944 C20.484,25.747 21.479,26.933 22.13,26.971 C22.779,27.009 23.736,26.588 23.775,25.862 C23.813,25.135 23.659,23.681 23.009,23.796 Z" fill="#F5BCA1"></path>
                <g transform="translate(3.000000, 15.000000)">
                    <path d="M0.546,8.289 C0.546,8.289 -0.191,12.593 0.109,13.184 C0.412,13.775 2.463,15.148 4.095,15.738 C5.729,16.326 7.008,16.458 7.642,16.715 C8.276,16.972 9.125,17.365 10,16.785 C10.876,16.205 11.724,14.604 10.757,14.015 C9.789,13.426 8.838,13.704 8.201,14.061 C7.564,14.417 7.182,14.267 6.672,14.128 C6.179,13.995 4.822,12.609 3.178,11.868 L3.981,9.042 L0.546,8.289 Z" fill="#F5BCA1"></path>
                    <path d="M2.399,1.107 C3.201,0.233 4.991,0.075 5.586,1.905 C6.181,3.736 4.778,9.292 4.005,9.554 C3.505,9.725 2.831,9.702 1.945,9.518 C0.866,9.292 0.543,8.389 0.329,7.988 C-0.006,7.361 1.046,2.586 2.399,1.107 Z" fill="#51689F"></path>
                </g>
            </g>
            <g transform="translate(16.000000, 170.000000)" id="Shape">
                <path d="M17.484,28.852 C17.484,28.852 17.993,24.89 18.115,21.567 C18.186,19.648 18.178,17.418 18.157,16.925 C18.105,15.692 17.972,13.147 17.972,13.147 C17.972,13.147 18.127,11.899 18.268,11.444 C18.686,10.113 19.151,7.619 16.961,7.019 C15.1,6.509 15.399,9.562 15.884,11.946 C15.965,12.339 15.51,14.613 15.315,16.457 C15.086,18.619 15.234,19.144 14.969,21.535 C14.641,24.541 13.577,28.138 13.577,28.138 L17.484,28.852 Z" fill="#F5BCA1"></path>
                <path d="M14.063,23.618 C14.063,23.618 14.973,24.966 16.241,25.054 C17.507,25.142 17.985,23.879 18.327,24.411 C18.58,24.801 18.29,32.04 16.76,32.728 C15.23,33.417 13.586,31.569 13.586,31.569 L12.95,29.202 C12.95,29.203 13.833,23.931 14.063,23.618 Z" fill="#B55953"></path>
                <path d="M8.43,72.84 C14.243,72.198 20.04,73.899 21.374,76.638 C22.709,79.38 19.079,82.121 13.264,82.761 C7.451,83.405 1.653,81.704 0.319,78.963 C-1.017,76.222 2.614,73.482 8.43,72.84 Z" fill="#83C4C7"></path>
                <path d="M8.387,76.666 C8.866,77.019 12.114,77.827 11.794,79.647 C11.475,81.466 5.102,79.431 5.247,77.373 C5.353,75.858 7.908,76.313 8.387,76.666 Z" fill="#797D81"></path>
                <path d="M14.987,74.039 C15.466,74.393 18.714,75.201 18.394,77.019 C18.076,78.837 11.702,76.801 11.846,74.745 C11.953,73.229 14.509,73.684 14.987,74.039 Z" fill="#797D81"></path>
                <path d="M16.691,52.159 C16.691,52.159 15.601,74.274 14.615,74.745 C13.628,75.217 11.9,74.897 11.9,74.897 L10.65,52.318 L16.691,52.159 Z" fill="#27603E"></path>
                <path d="M10.65,52.318 C10.65,52.318 8.895,76.471 7.908,77.171 C6.921,77.87 5.192,77.323 5.192,77.323 L4.159,52.49 L10.65,52.318 Z" fill="#27603E"></path>
                <path d="M9.044,29.862 C9.044,29.862 3.832,30.408 3.672,34.272 C3.512,38.138 3.462,52.067 3.462,52.596 C3.462,53.128 5.331,55.479 11.047,55.174 C16.489,54.883 17.231,53.337 17.231,52.393 C17.231,51.232 16.842,45.531 16.692,40.371 C16.586,36.774 17.412,33.092 17.109,31.75 C16.649,29.722 11.358,29.18 9.044,29.862 Z" fill="#B55953"></path>
                <path d="M12.283,27.418 C12.283,27.418 12.277,31.655 11.805,31.99 C11.334,32.325 8.742,31.878 8.742,30.424 C8.742,28.971 8.773,27.042 8.773,27.042 L12.283,27.418 Z" fill="#D8A78E"></path>
                <path d="M14.992,21.237 C14.992,21.237 15.38,29.746 12.628,30.154 C10.562,30.46 7.743,29.516 7.653,26.711 C7.562,23.906 6.671,19.772 8.618,19.767 C10.567,19.762 15.217,19.345 14.992,21.237 Z" fill="#F6BDA2"></path>
                <path d="M6.287,20.745 C6.287,20.745 6.13,23.589 6.18,24.859 C6.228,26.13 7.687,27.477 8.187,26.976 C8.687,26.475 8.47,21.817 8.47,21.817 L6.287,20.745 Z" fill="#7E5C4A"></path>
                <path d="M11.352,18.147 C11.352,18.147 14.23,18.156 15.255,19.924 C16.203,21.56 15.728,23.419 15.013,23.299 C14.743,23.254 14.597,22.913 14.07,22.657 C13.543,22.401 12.845,21.892 12.271,21.914 C11.732,21.935 10.454,22.12 10.128,23.422 C9.784,24.799 8.837,25.448 8.347,24.985 C7.259,23.96 5.447,22.211 6.648,19.62 C7.851,17.03 11.352,18.147 11.352,18.147 Z" fill="#7E5C4A"></path>
                <path d="M8.574,25.308 C8.574,25.308 7.995,23.827 7.108,24.458 C6.219,25.088 6.938,27.548 8.027,27.124 C9.117,26.698 8.574,25.308 8.574,25.308 Z" fill="#F6BDA2"></path>
                <polygon fill="#B3F1EF" points="4.997 7.434 17.125 0.406 17.125 13.148 4.997 20.156"></polygon>
                <path d="M18.479,9.769 C18.479,9.769 17.288,7.57 16.099,7.825 C14.911,8.08 15.231,10.733 15.784,11.345 C16.338,11.957 17.674,12.674 17.972,12.722 C18.269,12.771 18.784,10.336 18.479,9.769 Z" fill="#F5BCA1"></path>
                <path d="M5.201,26.07 C6.095,25.696 5.97,25.31 6.26,25.765 C6.55,26.22 6.886,28.669 7.333,30.335 C7.78,32.002 8.146,35.827 5.812,35.846 C3.478,35.865 2.757,33.958 2.633,32.28 C2.509,30.602 1.794,26.293 2.24,26.107 C2.688,25.92 4.31,26.442 5.201,26.07 Z" fill="#B55953"></path>
                <path d="M5.941,16.69 C5.941,16.69 5.899,21.332 5.747,22.146 C5.594,22.959 6.297,25.985 6.058,27.103 C5.821,28.22 2.869,28.364 2.482,27.336 C2.094,26.307 2.471,23.479 2.661,21.697 C2.851,19.915 3.398,16.947 3.845,15.678 C4.086,14.994 3.633,11.743 6.054,11.283 C7.36,11.035 8.128,11.429 7.893,13.005 C7.655,14.582 6.263,16.542 5.941,16.69 Z" fill="#F5BCA1"></path>
            </g>
            <g transform="translate(249.000000, 195.000000)" id="Shape">
                <path d="M17.855,20.014 C17.855,20.014 18.619,26.816 18.72,28.958 C18.821,31.1 18.772,33.039 18.72,33.906 C18.668,34.774 19.913,36.781 18.822,37.988 C17.393,39.569 16.067,38.345 16.374,36.254 C16.68,34.163 16.119,32.887 16.017,31.663 C15.915,30.439 16.068,19.777 16.068,19.777 L17.855,20.014 Z" fill="#F5BCA1"></path>
                <path d="M8.497,55.147 C14.311,54.505 20.108,56.207 21.442,58.945 C22.776,61.687 19.146,64.428 13.331,65.068 C7.518,65.711 1.72,64.011 0.386,61.269 C-0.948,58.529 2.683,55.789 8.497,55.147 Z" fill="#83C4C7"></path>
                <path d="M8.454,58.973 C8.933,59.326 12.181,60.134 11.862,61.954 C11.542,63.772 5.17,61.738 5.314,59.68 C5.421,58.165 7.976,58.619 8.454,58.973 Z" fill="#A96102"></path>
                <path d="M10.251,56.089 C10.646,56.534 13.655,57.999 12.966,59.712 C12.275,61.424 6.463,58.11 7.031,56.129 C7.45,54.668 9.855,55.643 10.251,56.089 Z" fill="#744001"></path>
                <path d="M15.738,34.706 C15.738,34.706 16.47,40.489 14.871,46.031 C13.364,51.251 10.256,56.579 9.739,56.703 C8.675,56.96 7.052,56.288 7.052,56.288 L10.279,45.112 L10.512,33.94 L15.738,34.706 Z" fill="#607527"></path>
                <path d="M10.718,34.625 C10.718,34.625 8.964,58.779 7.976,59.478 C6.989,60.178 5.261,59.63 5.261,59.63 L4.227,34.797 L10.718,34.625 Z" fill="#87A43A"></path>
                <path d="M8.265,12.26 C8.265,12.26 3.9,12.715 3.74,16.579 C3.581,20.446 3.53,34.374 3.53,34.903 C3.53,35.435 5.4,37.786 11.115,37.481 C16.557,37.19 16.708,35.497 16.708,34.553 C16.708,32.581 16.293,18.223 15.255,15.04 C14.214,11.857 10.578,11.577 8.265,12.26 Z" fill="#0C7378"></path>
                <path d="M12.351,9.724 C12.351,9.724 12.346,13.961 11.874,14.297 C11.402,14.632 8.811,14.185 8.811,12.731 C8.811,11.278 8.843,9.348 8.843,9.348 L12.351,9.724 Z" fill="#D8A78E"></path>
                <path d="M13.383,12.884 C13.383,12.884 16.585,12.669 17.417,14.805 C18.247,16.942 19.606,20.654 18.579,20.989 C17.551,21.322 16.628,21.644 16.191,21.596 C15.756,21.55 13.187,15.355 13.383,12.884 Z" fill="#0C7378"></path>
                <path d="M15.06,3.544 C15.06,3.544 15.448,12.053 12.696,12.461 C10.63,12.767 7.811,11.823 7.721,9.018 C7.63,6.212 6.739,2.079 8.687,2.074 C10.635,2.069 15.284,1.651 15.06,3.544 Z" fill="#F6BDA2"></path>
                <path d="M6.354,3.053 C6.354,3.053 6.198,5.896 6.247,7.166 C6.296,8.437 7.754,9.783 8.254,9.284 C8.754,8.783 8.538,4.125 8.538,4.125 L6.354,3.053 Z" fill="#DDA100"></path>
                <path d="M11.419,0.454 C11.419,0.454 14.221,0.463 15.216,2.3 C15.477,2.782 15.376,3.355 15.118,3.563 C14.826,3.801 14.353,3.64 14.353,3.64 C14.353,3.64 13.741,4.15 13.051,4.252 C12.363,4.354 11.062,3.767 11.062,3.767 C11.062,3.767 10.021,5.113 9.438,4.902 C9.438,4.902 9.503,8.32 8.414,7.293 C7.326,6.269 5.515,4.52 6.716,1.927 C7.918,-0.664 11.419,0.454 11.419,0.454 Z" fill="#DDA100"></path>
                <path d="M8.642,7.615 C8.642,7.615 8.063,6.133 7.176,6.765 C6.287,7.395 7.006,9.854 8.096,9.43 C9.185,9.004 8.642,7.615 8.642,7.615 Z" fill="#F6BDA2"></path>
                <path d="M2.275,18.648 C2.275,18.648 1.183,21.898 0.999,25.218 C0.895,27.136 1.497,34.342 1.497,34.342 C1.497,34.342 1.319,35.587 1.172,36.039 C0.729,37.362 0.22,39.847 2.398,40.486 C4.248,41.031 4.005,37.972 3.565,35.58 C3.491,35.185 3.835,27.693 4.144,25.307 C4.529,22.307 6.167,19.433 6.167,19.433 L2.275,18.648 Z" fill="#F5BCA1"></path>
                <path d="M4.186,13.693 C5.128,12.895 7.731,12.899 8.106,14.87 C8.481,16.84 6.579,22.808 5.747,22.977 C5.207,23.087 3.943,23.007 3.052,22.701 C1.966,22.327 1.693,21.579 1.525,21.136 C1.259,20.445 2.591,15.045 4.186,13.693 Z" fill="#0C7378"></path>
                <path d="M11.344,9.556 C11.191,9.76 11.013,10.347 11.32,10.321 C11.626,10.296 12.059,10.041 12.314,10.041 C12.568,10.041 12.823,10.168 12.976,10.168 C13.129,10.168 13.284,10.092 13.385,9.887 C13.487,9.683 13.766,10.015 13.792,9.811 C13.817,9.607 13.843,9.123 13.716,9.046 C13.588,8.969 13.435,8.868 13.181,8.969 C12.926,9.071 12.951,9.275 12.466,9.122 C12.335,9.08 12.211,8.968 11.905,9.07 C11.599,9.174 11.497,9.352 11.344,9.556 Z" fill="#DDA100"></path>
            </g>
        </g>
    </g>
</svg>