<?xml version="1.0" encoding="UTF-8"?>
<svg width="327px" height="294px" viewBox="0 0 327 294" version="1.1" xmlns="http://www.w3.org/2000/svg" xmlns:xlink="http://www.w3.org/1999/xlink">
    <!-- Generator: Sketch 48.1 (47250) - http://www.bohemiancoding.com/sketch -->
    <title>Group 4</title>
    <desc>Created with Sketch.</desc>
    <defs></defs>
    <g id="Page-1" stroke="none" stroke-width="1" fill="none" fill-rule="evenodd">
        <g id="Group-4" transform="translate(-1.000000, 0.000000)">
            <text id="5%" fill="#000000" font-family="Helvetica-Bold, Helvetica" font-size="30" font-weight="bold">
                <tspan x="227.522727" y="283.619772">5%</tspan>
            </text>
            <text id="66%" fill="#D0021B" font-family="Helvetica-Bold, Helvetica" font-size="40" font-weight="bold">
                <tspan x="0" y="279.237773">66%</tspan>
            </text>
            <g id="Group-2" transform="translate(61.954545, 0.000000)">
                <g id="Group">
                    <polygon id="Shape" fill="#D8D8D8" fill-rule="nonzero" points="58.59725 130.514836 22.6411818 289.239479 110.723455 144.933635"></polygon>
                    <path d="M55.8755227,134.728063 L45.4180227,188.248959 L58.9604318,195.282713 C60.2294318,195.943367 60.7816818,197.547974 60.2112727,198.919142 L22.64225,289.238346 L110.723455,144.932502 L55.8755227,134.728063 Z" id="Shape" fill="#B5B5B5" fill-rule="nonzero"></path>
                    <ellipse id="Oval" fill="#FFCB39" fill-rule="nonzero" cx="92.5045455" cy="97.75071" rx="91.7269091" ry="97.3098963"></ellipse>
                    <ellipse id="Oval" fill="#FFD570" fill-rule="nonzero" cx="92.5045455" cy="97.75071" rx="84.3874318" ry="89.5236995"></ellipse>
                    <g opacity="0.25" transform="translate(5.340909, 0.000000)" fill="#FFCB39" fill-rule="nonzero" id="Shape">
                        <g>
                            <path d="M87.1647045,0.441946846 C72.5658636,0.441946846 58.7735,4.07724296 46.5214545,10.512669 C56.8432955,8.93185908 67.8028409,8.84460291 79.0208864,10.5104026 C129.19125,17.9555071 165.459227,57.3850982 160.026455,98.5813434 C154.59475,139.777589 109.520682,167.137498 59.3503182,159.692393 C35.99025,156.225944 15.6499318,145.819795 1.12479545,131.534713 C0.839590909,130.718812 0.583227273,129.888178 0.319386364,129.062077 C12.6109545,167.437795 46.8355,195.060606 87.1647045,195.060606 C137.823227,195.060606 178.890545,151.493713 178.890545,97.75071 C178.890545,44.0077071 137.822159,0.441946846 87.1647045,0.441946846 Z"></path>
                        </g>
                    </g>
                    <path d="M125.580795,114.451768 C117.686932,104.396911 105.804477,97.9932142 92.5045455,97.9932142 C79.2056818,97.9932142 67.3232273,104.396911 59.4282955,114.451768" id="Shape" stroke="#434F5B" stroke-width="7" stroke-linecap="round" stroke-linejoin="round"></path>
                    <g transform="translate(47.000000, 66.858625)" id="Shape" stroke="#434F5B" stroke-linecap="round" stroke-linejoin="round" stroke-width="7">
                        <path d="M28.4296591,0.967750273 C28.4296591,0.967750273 15.6969318,16.1129287 0.993409091,1.82444724"></path>
                        <path d="M62.5794318,0.967750273 C62.5794318,0.967750273 75.3121591,16.1129287 90.0156818,1.82444724"></path>
                    </g>
                </g>
                <g id="Group" transform="translate(207.227273, 202.842270)" fill-rule="nonzero">
                    <polygon id="Shape" fill="#D8D8D8" points="19.2465 41.068194 7.93445455 91.0036548 35.6462955 45.6043817"></polygon>
                    <path d="M18.3908864,42.3940345 L15.0998182,59.2322094 L19.3607955,61.4453432 C19.7602955,61.6538514 19.9344091,62.1581241 19.7538864,62.5898722 L7.93445455,91.004788 L35.6452273,45.6055149 L18.3908864,42.3940345 Z" id="Shape" fill="#B5B5B5"></path>
                    <ellipse id="Oval" fill="#FFCB39" cx="29.9144318" cy="30.7606337" rx="28.858" ry="30.6144513"></ellipse>
                    <ellipse id="Oval" fill="#FFD570" cx="29.9144318" cy="30.7606337" rx="26.5496591" ry="28.1656125"></ellipse>
                    <path d="M29.9133636,0.145049221 C25.32125,0.145049221 20.9822955,1.28844504 17.1272273,3.31346815 C20.3755682,2.81599465 23.8225909,2.78879792 27.3518636,3.31233495 C43.1363864,5.65352004 54.5456364,18.0597613 52.8376136,31.0201358 C51.1285227,43.9816436 36.9473409,52.5882751 21.1638864,50.2459568 C13.8147955,49.1558213 7.41531818,45.8808818 2.84563636,41.3866224 C2.75590909,41.1305198 2.67579545,40.8687513 2.59247727,40.6092492 C6.46036364,52.6823305 17.2276364,61.3739518 29.9144318,61.3739518 C45.8527727,61.3739518 58.7735,47.6668004 58.7735,30.7583673 C58.7735,13.8499342 45.8517045,0.145049221 29.9133636,0.145049221 Z" id="Shape" fill="#FFCB39" opacity="0.25"></path>
                    <path d="M16.826,32.9001097 C18.3620455,39.0454373 23.6367273,43.5770922 29.9133636,43.5770922 C36.19,43.5770922 41.46575,39.0454373 43.0017955,32.9001097 L16.826,32.9001097 Z" id="Shape" fill="#FFFFFF"></path>
                    <g transform="translate(18.159091, 36.262305)" fill="#434F5B" id="Shape">
                        <path d="M0.0662272727,0.194909891 C0.289477273,0.599461235 0.527681818,0.991547411 0.786181818,1.37003522 L2.95993182,1.23291838 C3.47159091,1.20118886 3.47159091,0.400018556 2.95993182,0.368289038 L0.0662272727,0.194909891 Z"></path>
                        <path d="M20.55075,1.23291838 L22.7245,1.37003522 C22.983,0.992680608 23.2212045,0.599461235 23.4444545,0.194909891 L20.5518182,0.368289038 C20.0401591,0.400018556 20.0390909,1.20118886 20.55075,1.23291838 Z"></path>
                    </g>
                    <path d="M7.76354545,16.8245765 C7.20488636,16.8245765 6.80645455,17.5713533 6.94959091,18.3305953 C8.22713636,25.1581075 12.6526136,30.1951684 17.9176818,30.1951684 C22.7650909,30.1951684 26.8978864,27.1502679 28.5204545,21.1443236 C28.7426364,20.3216225 29.2884773,19.76069 29.9144318,19.76069 C30.5414545,19.76069 31.0872955,20.3216225 31.3094773,21.1443236 C32.9320455,27.1502679 37.0648409,30.1951684 41.91225,30.1951684 C47.1773182,30.1951684 51.6017273,25.1581075 52.8814091,18.3305953 C53.0234773,17.5713533 52.6250455,16.8245765 52.0663864,16.8245765 L7.76354545,16.8245765 Z" id="Shape" fill="#434F5B"></path>
                </g>
            </g>
        </g>
    </g>
</svg>